<?xml version="1.0" encoding="utf-8"?>
<!-- Generator: Adobe Illustrator 26.0.3, SVG Export Plug-In . SVG Version: 6.00 Build 0)  -->
<svg version="1.1" baseProfile="basic" id="Layer_1"
	 xmlns="http://www.w3.org/2000/svg" xmlns:xlink="http://www.w3.org/1999/xlink" x="0px" y="0px" viewBox="0 0 1129 663"
	 xml:space="preserve">
<circle fill="#F2F2F2" cx="321" cy="321" r="321"/>
<ellipse fill="#3F3D56" cx="559" cy="635.5" rx="514" ry="27.5"/>
<ellipse opacity="0.2" cx="558" cy="627" rx="460" ry="22"/>
<path fill="#3F3D56" d="M131,152.5h840v50H131V152.5z"/>
<path fill="#3F3D56" d="M131,608.8c0,12,9.7,21.7,21.7,21.7h796.7c12,0,21.7-9.7,21.7-21.7l0,0V177.5H131V608.8z M949.3,117.5H152.7
	c-12,0-21.7,9.7-21.7,21.7v38.3h840v-38.3C971,127.2,961.3,117.5,949.3,117.5z"/>
<path opacity="0.2" d="M949.3,117.5H152.7c-12,0-21.7,9.7-21.7,21.7v38.3h840v-38.3C971,127.2,961.3,117.5,949.3,117.5z"/>
<circle fill="#3F3D56" cx="181" cy="147.5" r="13"/>
<circle fill="#3F3D56" cx="217" cy="147.5" r="13"/>
<circle fill="#3F3D56" cx="253" cy="147.5" r="13"/>
<path fill="#606060" d="M173.3,213.5h326.3c2.9,0,5.3,2.4,5.3,5.3v375.3c0,2.9-2.4,5.3-5.3,5.3H173.3c-2.9,0-5.3-2.4-5.3-5.3V218.8
	C168,215.9,170.4,213.5,173.3,213.5z"/>
<path fill="#2E8555" d="M608.5,272.5h273c3,0,5.5,2.5,5.5,5.5v11c0,3-2.5,5.5-5.5,5.5h-273c-3,0-5.5-2.5-5.5-5.5v-11
	C603,275,605.5,272.5,608.5,272.5z"/>
<path fill="#2E8555" d="M542.5,352.5h405c3,0,5.5,2.5,5.5,5.5v4c0,3-2.5,5.5-5.5,5.5h-405c-3,0-5.5-2.5-5.5-5.5v-4
	C537,355,539.5,352.5,542.5,352.5z"/>
<path fill="#2E8555" d="M542.5,396.5h405c3,0,5.5,2.5,5.5,5.5v4c0,3-2.5,5.5-5.5,5.5h-405c-3,0-5.5-2.5-5.5-5.5v-4
	C537,399,539.5,396.5,542.5,396.5z"/>
<path fill="#2E8555" d="M542.5,440.5h405c3,0,5.5,2.5,5.5,5.5v4c0,3-2.5,5.5-5.5,5.5h-405c-3,0-5.5-2.5-5.5-5.5v-4
	C537,443,539.5,440.5,542.5,440.5z"/>
<path fill="#2E8555" d="M542.5,484.5h405c3,0,5.5,2.5,5.5,5.5v4c0,3-2.5,5.5-5.5,5.5h-405c-3,0-5.5-2.5-5.5-5.5v-4
	C537,487,539.5,484.5,542.5,484.5z"/>
<path fill="#3ECC5F" d="M872,552.5h74c3.9,0,7,3.1,7,7v11.9c0,3.9-3.1,7-7,7h-74c-3.9,0-7-3.1-7-7v-11.9
	C865,555.6,868.1,552.5,872,552.5z"/>
<path fill="#3F3D56" d="M1053.1,506.1c2.7-4.6,4-9.9,4-15.3c0-13.8-8.5-25-19.1-25s-19.1,11.2-19.1,25c-0.1,5.4,1.3,10.6,4,15.3
	c-5.3,9.5-5.3,21,0,30.5c-5.3,9.5-5.3,21,0,30.5c-5.3,9.5-5.3,21,0,30.5c-2.7,4.6-4,9.9-4,15.3c0,13.8,8.5,25,19.1,25
	s19.1-11.2,19.1-25c0.1-5.4-1.3-10.6-4-15.3c5.3-9.5,5.3-21,0-30.5c5.3-9.5,5.3-21,0-30.5C1058.4,527.2,1058.4,515.6,1053.1,506.1z"
	/>
<ellipse fill="#3F3D56" cx="1038" cy="460.3" rx="19.1" ry="25"/>
<ellipse fill="#3F3D56" cx="1038" cy="429.8" rx="19.1" ry="25"/>
<path fill-rule="evenodd" clip-rule="evenodd" fill="#3ECC5F" d="M1109.4,220.8c2.6-3.3,5-6.8,7.1-10.5l-50.1-8.2l54.2,0.4
	c10.5-22.9,11.1-49.1,1.7-72.4l-72.8,37.7l67.1-49.3c-25.3-43.7-81.2-58.6-124.9-33.3c-43.7,25.3-58.6,81.2-33.3,124.9
	c2.2,3.7,4.6,7.3,7.3,10.7c-4.1,5.2-7.6,10.8-10.4,16.7l65.1,33.8L951,248c-9.9,29.3-4.4,61.6,14.7,85.8
	c-31.2,39.7-24.3,97.1,15.3,128.4c39.7,31.2,97.1,24.3,128.4-15.3c26.1-33.2,26.1-79.9,0-113C1135.5,300.7,1135.5,254,1109.4,220.8
	L1109.4,220.8z"/>
<path opacity="0.1" d="M946.2,277.4c0,20.5,6.9,40.4,19.6,56.5c-31.2,39.7-24.3,97.1,15.3,128.4c39.7,31.2,97.1,24.3,128.4-15.3
	c26.1-33.2,26.1-79.9,0-113C1121.7,318.3,946.2,267.1,946.2,277.4L946.2,277.4z"/>
<g id="Layer_2_00000044177190501235806810000009386408243327174275_">
	<g id="Layer_1-2">
		<g>
			<path fill="#FFD700" d="M403.9,346.8v29.9h-12.3c-10.2,0-20.2-3.1-28.6-9c0.7,0,1.4,0,2.1,0C380.7,367.8,395.3,359.9,403.9,346.8
				z"/>
			<path fill="#0057B8" d="M403.9,335.2v11.6c-8.6,13.1-23.2,21-38.9,21c-0.7,0-1.4,0-2.1,0c-13.5-9.4-21.5-24.8-21.5-41.2
				c0-11.5,9.3-20.7,20.7-20.7l0,0h12.3C390.7,305.8,403.9,319,403.9,335.2L403.9,335.2z"/>
			<path fill="#FFFFFF" d="M355,321.3h1.2c6.4,0,11.7,5.2,11.7,11.7l0,0v20.7l0,0h-1.2c-11,0-19.9-8.9-19.9-19.9l0,0v-4.2
				C346.8,325,350.5,321.3,355,321.3L355,321.3z"/>
			<path fill="#FFFFFF" d="M380,353.7h-1.2l0,0V333c0-6.4,5.2-11.7,11.7-11.7h1.2c4.5,0,8.2,3.7,8.2,8.2v4.2
				C399.9,344.8,391,353.7,380,353.7z"/>
			<g id="Layer_2-2">
				<g id="Layer_1-2-2">
					<path fill="#FFFFFF" d="M368.9,317.2c0,0.7,0.5,1.4,1.3,1.4h0.1c0.7,0,1.3-0.6,1.3-1.4s-0.6-1.3-1.4-1.3
						C369.5,316,368.9,316.5,368.9,317.2z"/>
					<path fill="#FFFFFF" d="M363.9,316.9c-0.2,0-0.4,0.2-0.5,0.4s0.2,0.4,0.4,0.5c0.2,0,0.4-0.2,0.5-0.4
						C364.3,317.1,364.1,316.9,363.9,316.9L363.9,316.9z"/>
					<path fill="#FFFFFF" d="M368.8,309.4c0.2-0.1,0.3-0.4,0.2-0.6c-0.1-0.2-0.4-0.3-0.6-0.2l0,0c-0.2,0.1-0.3,0.4-0.2,0.6
						C368.3,309.4,368.6,309.5,368.8,309.4z"/>
					<path fill="#FFFFFF" d="M370.2,311.8c0.3-0.2,0.5-0.6,0.3-0.9s-0.6-0.5-0.9-0.3s-0.5,0.6-0.3,0.9l0,0
						C369.5,311.8,369.9,312,370.2,311.8z"/>
					<path fill="#FFFFFF" d="M365.6,313.4c0.3,0.2,0.6,0.1,0.8-0.2s0.1-0.6-0.2-0.8c-0.3-0.2-0.6-0.1-0.8,0.2l0,0l0,0
						C365.3,312.9,365.3,313.3,365.6,313.4L365.6,313.4z"/>
					<path fill="#FFFFFF" d="M366.4,316.7c-0.4,0-0.7,0.3-0.7,0.6c0,0.4,0.3,0.7,0.6,0.7c0.4,0,0.7-0.3,0.7-0.6l0,0
						C367.1,317,366.8,316.7,366.4,316.7z"/>
					<path fill="#FFFFFF" d="M365.7,321.2c-0.3,0.1-0.4,0.5-0.2,0.7c0.1,0.3,0.5,0.4,0.7,0.2c0.3-0.1,0.4-0.5,0.2-0.7l0,0
						C366.3,321.1,365.9,321,365.7,321.2z"/>
					<path fill="#FFFFFF" d="M368.3,315.3c0.4,0.2,0.9,0.1,1.1-0.2c0.2-0.4,0.1-0.9-0.2-1.1c-0.4-0.2-0.9-0.1-1.1,0.2l0,0
						C367.8,314.5,367.9,315,368.3,315.3L368.3,315.3z"/>
					<path fill="#FFFFFF" d="M376.6,311.8c0.3,0.2,0.7,0.1,0.9-0.2c0.2-0.3,0.1-0.7-0.2-0.9c-0.3-0.2-0.7-0.1-0.9,0.2l0,0l0,0
						C376.2,311.1,376.3,311.5,376.6,311.8C376.6,311.7,376.6,311.7,376.6,311.8z"/>
					<path fill="#FFFFFF" d="M377.9,309.4c0.2,0.1,0.5,0.1,0.6-0.1s0.1-0.5-0.1-0.6s-0.5-0.1-0.6,0.1
						C377.7,309,377.7,309.2,377.9,309.4z"/>
					<path fill="#FFFFFF" d="M376.7,316c-0.7,0-1.4,0.5-1.4,1.3c0,0.7,0.5,1.4,1.3,1.4h0.1c0.7,0,1.3-0.6,1.3-1.3
						C377.9,316.6,377.4,316,376.7,316z"/>
					<path fill="#FFFFFF" d="M370.6,315.2c0.3,0.7,1.1,0.9,1.8,0.6s0.9-1.1,0.6-1.8c-0.3-0.7-1.1-0.9-1.8-0.6
						C370.6,313.7,370.3,314.5,370.6,315.2L370.6,315.2z"/>
					<path fill="#FFFFFF" d="M381.2,313.4c0.3-0.1,0.4-0.5,0.2-0.7c-0.1-0.3-0.5-0.4-0.7-0.2c-0.3,0.1-0.4,0.5-0.2,0.7
						C380.6,313.5,380.9,313.6,381.2,313.4z"/>
					<path fill="#FFFFFF" d="M377.8,313.9c-0.4,0.2-0.5,0.7-0.4,1.1c0.2,0.4,0.7,0.5,1.1,0.4c0.4-0.2,0.5-0.7,0.4-1.1
						C378.6,313.8,378.2,313.7,377.8,313.9z"/>
					<path fill="#FFFFFF" d="M373.4,309.2c0.3,0,0.6-0.2,0.6-0.5s-0.2-0.6-0.5-0.6s-0.6,0.2-0.6,0.5
						C372.8,308.9,373.1,309.2,373.4,309.2z"/>
					<path fill="#FFFFFF" d="M373.4,312.7c0.4,0,0.8-0.3,0.8-0.7s-0.3-0.8-0.7-0.8s-0.8,0.3-0.8,0.7
						C372.6,312.3,372.9,312.6,373.4,312.7L373.4,312.7z"/>
					<path fill="#FFFFFF" d="M369.1,320.7c0.4-0.2,0.5-0.7,0.4-1.1c-0.2-0.4-0.7-0.5-1.1-0.4c-0.4,0.2-0.5,0.7-0.4,1.1
						C368.2,320.8,368.7,320.9,369.1,320.7z"/>
					<path fill="#FFFFFF" d="M373.9,313.8c-0.4,0.6-0.2,1.5,0.4,1.9s1.5,0.2,1.9-0.4s0.2-1.5-0.4-1.9c-0.2-0.1-0.5-0.2-0.7-0.2
						C374.5,313.2,374.1,313.4,373.9,313.8z"/>
					<path fill="#FFFFFF" d="M376.2,319.4c-0.3-0.7-1.1-0.9-1.8-0.6c-0.7,0.3-0.9,1.1-0.6,1.8c0.3,0.7,1.1,0.9,1.8,0.6l0,0
						C376.3,320.9,376.6,320.1,376.2,319.4C376.2,319.5,376.2,319.5,376.2,319.4L376.2,319.4z"/>
					<path fill="#FFFFFF" d="M378.6,319.4c-0.4-0.2-0.9-0.1-1.1,0.2c-0.2,0.4-0.1,0.9,0.2,1.1c0.4,0.2,0.9,0.1,1.1-0.2l0,0
						C379,320.1,378.9,319.6,378.6,319.4L378.6,319.4z"/>
					<path fill="#FFFFFF" d="M381.2,317.3c0-0.4-0.3-0.7-0.6-0.7c-0.4,0-0.7,0.3-0.7,0.6c0,0.4,0.3,0.7,0.6,0.7l0,0
						C380.8,318,381.1,317.7,381.2,317.3z"/>
					<path fill="#FFFFFF" d="M383,316.8c-0.2,0-0.4,0.2-0.5,0.4s0.2,0.4,0.4,0.5s0.4-0.2,0.5-0.4C383.4,317.1,383.3,316.9,383,316.8
						z"/>
					<path fill="#FFFFFF" d="M381.3,321.2c-0.3-0.2-0.6-0.1-0.8,0.2c-0.2,0.3-0.1,0.6,0.2,0.8c0.3,0.2,0.6,0.1,0.8-0.2
						C381.6,321.7,381.5,321.3,381.3,321.2L381.3,321.2z"/>
					<path fill="#FFFFFF" d="M368.9,325.2c-0.2-0.1-0.5-0.1-0.6,0.1s-0.1,0.5,0.1,0.6s0.5,0.1,0.6-0.1l0,0
						C369.2,325.6,369.1,325.4,368.9,325.2L368.9,325.2z"/>
					<path fill="#FFFFFF" d="M378,325.2c-0.2,0.1-0.3,0.4-0.2,0.6s0.4,0.3,0.6,0.2l0,0c0.2-0.1,0.3-0.4,0.2-0.6
						C378.5,325.2,378.2,325.1,378,325.2z"/>
					<path fill="#FFFFFF" d="M373,320.8c0.4-0.6,0.2-1.5-0.4-1.9s-1.5-0.2-1.9,0.4s-0.2,1.5,0.4,1.9
						C371.7,321.6,372.6,321.4,373,320.8z"/>
					<path fill="#FFFFFF" d="M370.3,322.9c-0.3-0.2-0.7-0.1-0.9,0.2c-0.2,0.3-0.1,0.7,0.2,0.9s0.7,0.1,0.9-0.2l0,0
						C370.7,323.5,370.6,323.1,370.3,322.9L370.3,322.9z"/>
					<path fill="#FFFFFF" d="M373.4,325.4c-0.3,0-0.6,0.2-0.6,0.5s0.2,0.6,0.5,0.6s0.6-0.2,0.6-0.5
						C374,325.7,373.7,325.5,373.4,325.4z"/>
					<path fill="#FFFFFF" d="M373.4,322c-0.4,0-0.8,0.3-0.8,0.7s0.3,0.8,0.7,0.8c0.4,0,0.8-0.3,0.8-0.7
						C374.2,322.4,373.9,322,373.4,322L373.4,322z"/>
					<path fill="#FFFFFF" d="M376.7,322.8c-0.3,0.2-0.5,0.6-0.3,0.9s0.6,0.5,0.9,0.3s0.5-0.6,0.3-0.9S377,322.6,376.7,322.8
						L376.7,322.8z"/>
				</g>
			</g>
		</g>
	</g>
</g>
<path fill="#2E8555" d="M179,571h293c2.2,0,4,1.2,4,2.7v2c0,1.5-1.8,2.7-4,2.7H179c-2.2,0-4-1.2-4-2.7v-2
	C175,572.2,176.8,571,179,571z"/>
<path fill="#2E8555" d="M193.7,291.8l-0.8,297.5c0,2.2-0.7,4-1.6,4h-1.2c-0.9,0-1.6-1.8-1.6-4l0.8-297.5c0-2.2,0.7-4,1.6-4h1.2
	C193,287.7,193.7,289.5,193.7,291.8z"/>
<path fill="#FFFFFF" d="M225.6,485.1l-29.3,85c-0.2,0.6-0.8,1-1.3,0.8l-0.7-0.2c-0.5-0.2-0.7-0.8-0.5-1.5l29.3-85
	c0.2-0.6,0.8-1,1.3-0.8l0.7,0.2C225.6,483.8,225.8,484.5,225.6,485.1z"/>
<path fill="#FFFFFF" d="M226.7,482l37.4,49.3c0.3,0.4,0.1,1-0.5,1.4l-0.7,0.5c-0.5,0.4-1.2,0.4-1.5,0.1L224,484
	c-0.3-0.4-0.1-1,0.5-1.4l0.7-0.5C225.7,481.7,226.4,481.6,226.7,482z"/>
<path fill="#FFFFFF" d="M280.5,442l-16,88.5c-0.1,0.7-0.6,1.1-1.2,1l-0.7-0.1c-0.5-0.1-0.9-0.7-0.7-1.4l16-88.5
	c0.1-0.7,0.6-1.1,1.2-1l0.7,0.1C280.3,440.7,280.7,441.3,280.5,442z"/>
<path fill="#FFFFFF" d="M337.4,397.4l-25.7,86.2c-0.2,0.6-0.8,1-1.3,0.9l-0.7-0.2c-0.5-0.2-0.8-0.8-0.6-1.4l25.7-86.2
	c0.2-0.6,0.8-1,1.3-0.9l0.7,0.2C337.3,396.1,337.6,396.8,337.4,397.4z"/>
<path fill="#FFFFFF" d="M280,441.1l31.6,41.7c0.2,0.3,0.1,0.8-0.3,1.1l-0.6,0.4c-0.4,0.3-0.9,0.3-1.2,0l-31.6-41.7
	c-0.2-0.3-0.1-0.8,0.3-1.1l0.6-0.4C279.2,440.8,279.7,440.8,280,441.1z"/>
</svg>
