<?xml version="1.0" encoding="utf-8"?>
<!-- Generator: Adobe Illustrator 26.0.3, SVG Export Plug-In . SVG Version: 6.00 Build 0)  -->
<svg version="1.1" baseProfile="basic" id="Layer_1"
	 xmlns="http://www.w3.org/2000/svg" xmlns:xlink="http://www.w3.org/1999/xlink" x="0px" y="0px" viewBox="0 0 1088 688"
	 xml:space="preserve">
<g>
	<path fill="#3F3D56" d="M961.8,454.4c-5.3,45.1-16.2,81.4-31.2,110.3c-20,38.5-54.2,54-84.8,70.3c-8.8,4.7-18,8.7-27.5,11.9
		c-55.6,19.3-117.8,14.2-166.7,4c-34.3-7.2-69.1-11.6-104.1-13.2c-10-0.5-20-0.7-30-0.7c-15.4,0-293.1,5.3-360.7-131.6
		c-16.7-33.8-28.1-75-32.2-125.3C113,238.2,176.9,144.8,259.4,83.8c156-115.4,369.8-110.6,523.4,7.9
		C885.2,170.6,981,290,961.8,454.4L961.8,454.4z"/>
	<path fill="#F2F2F2" d="M930.6,564.8c-20,38.5-47.2,64-77.8,80.3c-8.8,4.7-18,8.7-27.5,11.9c-55.6,19.3-117.8,14.2-166.7,4
		c-34.3-7.2-69.1-11.6-104.1-13.2c-10-0.5-20-0.7-30-0.7c-15.4,0-30.8,0.6-46.2,1.7c-100.2,7.4-253.8-6.4-321.4-143.3L326,178
		l63,161.6l20.1,51.6l55.4-76L493,276l130.2,149.3L660,344l254.8,207.9l14.2,11.6L930.6,564.8z"/>
	<path opacity="0.1" d="M302,283l26-57l36,83l-31-60L302,283z"/>
	<path opacity="0.1" d="M554.5,647.8c-10-0.5-20-0.7-30-0.7L409,391.2L554.5,647.8z"/>
	<path opacity="0.1" d="M464.4,315.2L493,293l130,150L491,315L464.4,315.2z"/>
	<path opacity="0.1" d="M852.8,645c-8.8,4.7-18,8.7-27.5,11.9L623.2,425.2L852.8,645z"/>
	<circle fill="#F2F2F2" cx="482" cy="102" r="3"/>
	<circle fill="#F2F2F2" cx="399" cy="205" r="3"/>
	<circle fill="#F2F2F2" cx="602" cy="223" r="2"/>
	<circle fill="#F2F2F2" cx="182" cy="268" r="2"/>
	<circle fill="#F2F2F2" cx="614" cy="99" r="2"/>
	<circle fill="#F2F2F2" cx="738" cy="195" r="2"/>
	<circle fill="#F2F2F2" cx="860" cy="347" r="2"/>
	<path fill="#F2F2F2" d="M306,121.2h-2.8v-2.8h-1.5v2.8H299v1.5h2.8v2.8h1.5v-2.8h2.8V121.2z"/>
	<path fill="#F2F2F2" d="M848,424.2h-2.8v-2.8h-1.5v2.8H841v1.5h2.8v2.8h1.5v-2.8h2.8V424.2z"/>
	<path fill="#3F3D56" d="M1088,614c0,16.6-243.6,74-544,74S0,630.5,0,614s243.6,14,544,14S1088,597.4,1088,614z"/>
	<path opacity="0.1" d="M1088,614c0,16.6-243.6,74-544,74S0,630.5,0,614s243.6,14,544,14S1088,597.4,1088,614z"/>
	<ellipse fill="#3F3D56" cx="544" cy="614" rx="544" ry="30"/>
	<path fill="#FF6584" d="M568,572c0,33.1-14.8,24-33,24s-33,9.1-33-24s33-96,33-96S568,538.8,568,572z"/>
	<path opacity="0.1" d="M550,584.6c0,15.1-6.7,10.9-15,10.9s-15,4.2-15-10.9s15-43.6,15-43.6S550,569.6,550,584.6z"/>
	<path fill="#2F2E41" d="M498,605h74c5,0,9,4,9,9l0,0c0,5-4,9-9,9h-74c-5,0-9-4-9-9l0,0C489,609,493,605,498,605z"/>
	<path fill="#2F2E41" d="M498,587h74c5,0,9,4,9,9l0,0c0,5-4,9-9,9h-74c-5,0-9-4-9-9l0,0C489,591,493,587,498,587z"/>
	<path fill="#3F3D56" d="M137,490.5c0,55.3,34.7,100.1,77.6,100.1"/>
	<path fill="#6C63FF" d="M214.6,590.7c0-56,38.7-101.3,86.6-101.3"/>
	<path fill="#6C63FF" d="M165.1,495.5c0,52.6,22.1,95.1,49.5,95.1"/>
	<path fill="#3F3D56" d="M214.6,590.7c0-71.5,44.8-129.4,100.1-129.4"/>
	<path fill="#A8A8A8" d="M198.3,591.4c0,0,11-0.3,14.3-2.7s16.9-5.2,17.8-1.4s16.5,18.8,4.1,18.9s-28.9-1.9-32.2-4
		S198.3,591.4,198.3,591.4L198.3,591.4z"/>
	<path opacity="0.2" d="M234.7,604.9c-12.4,0.1-28.9-1.9-32.2-4c-2.5-1.5-3.5-7-3.9-9.6l-0.4,0c0,0,0.7,8.9,4,10.9s19.8,4.1,32.2,4
		c3.6,0,4.8-1.3,4.8-3.2C238.8,604.2,237.4,604.9,234.7,604.9z"/>
	<path fill="#3F3D56" d="M721.4,527.1c0,38,23.9,68.8,53.3,68.8"/>
	<path fill="#6C63FF" d="M774.8,595.9c0-38.5,26.6-69.6,59.5-69.6"/>
	<path fill="#6C63FF" d="M740.8,530.5c0,36.1,15.2,65.4,34,65.4"/>
	<path fill="#3F3D56" d="M774.8,595.9c0-49.1,30.8-88.9,68.8-88.9"/>
	<path fill="#A8A8A8" d="M763.5,596.3c0,0,7.6-0.2,9.8-1.9s11.6-3.6,12.2-1s11.4,12.9,2.8,13s-19.8-1.3-22.1-2.7
		S763.5,596.3,763.5,596.3z"/>
	<path opacity="0.2" d="M788.6,605.6c-8.5,0.1-19.8-1.3-22.1-2.7c-1.7-1.1-2.4-4.8-2.7-6.6l-0.3,0c0,0,0.5,6.1,2.8,7.5
		s13.6,2.8,22.1,2.7c2.5,0,3.3-0.9,3.3-2.2C791.3,605.1,790.4,605.6,788.6,605.6L788.6,605.6z"/>
	<path fill="#A8A8A8" d="M893.8,618.7c0,0,11.4-1.7,14.5-4.6s16.9-7.5,18.2-3.7s19.5,17.4,6.6,19.1s-30.2,1.6-33.8-0.1
		S893.8,618.7,893.8,618.7L893.8,618.7z"/>
	<path opacity="0.2" d="M933.2,628.2c-12.9,1.7-30.2,1.6-33.8-0.1c-2.8-1.3-4.5-6.9-5.2-9.5l-0.4,0.1c0,0,1.8,9.1,5.5,10.8
		s21,1.7,33.8,0.1c3.7-0.5,4.8-2,4.5-3.9C937.3,626.9,936,627.8,933.2,628.2L933.2,628.2z"/>
	<path fill="#A8A8A8" d="M614.3,617.9c0,0,9.6-1.5,12.2-3.9s14.3-6.3,15.4-3.1s16.5,14.7,5.6,16.1s-25.4,1.4-28.6-0.1
		S614.3,617.9,614.3,617.9L614.3,617.9z"/>
	<path opacity="0.2" d="M647.5,625.9c-10.9,1.4-25.4,1.4-28.6-0.1c-2.4-1.1-3.8-5.8-4.4-8l-0.3,0.1c0,0,1.5,7.7,4.7,9.1
		s17.7,1.5,28.6,0.1c3.1-0.4,4.1-1.7,3.8-3.3C651,624.8,649.9,625.6,647.5,625.9z"/>
	<path fill="#A8A8A8" d="M122.4,613.1c0,0,7.5-1.1,9.5-3s11.1-4.9,12-2.4s12.8,11.5,4.4,12.6s-19.8,1.1-22.2,0
		S122.4,613.1,122.4,613.1L122.4,613.1z"/>
	<path opacity="0.2" d="M148.3,619.3c-8.4,1.1-19.8,1.1-22.2,0c-1.8-0.8-3-4.5-3.4-6.2l-0.2,0c0,0,1.2,6,3.6,7.1s13.8,1.1,22.2,0
		c2.4-0.3,3.2-1.3,3-2.6C151,618.5,150.1,619.1,148.3,619.3L148.3,619.3z"/>
	<path opacity="0.1" d="M383.7,601.3c0,30.2-42.1,20.9-93.7,20.9s-93.1,9.3-93.1-20.9s42.1-36.8,93.7-36.8S383.7,571.1,383.7,601.3z
		"/>
	<path fill="#3F3D56" d="M383.7,593.9c0,30.2-42.1,20.9-93.7,20.9s-93.1,9.3-93.1-20.9s42.1-36.8,93.7-36.8S383.7,563.7,383.7,593.9
		z"/>
</g>
<g transform="rotate(-14.98 2188.845 -1120.376)">
	<path fill="#D8D8D8" d="M2,0l88.4,0c1.1,0,2,0.9,2,2l0,32.5c0,1.1-0.9,2-2,2L2,36.5c-1.1,0-2-0.9-2-2L0,2C0,0.9,0.9,0,2,0z"/>
	<g transform="translate(1.531 23.03)">
		<path fill="#4A4A4A" d="M17.8,0l3.3,0c0.6,0,1,0.4,1,1v3.3c0,0.6-0.4,1-1,1l-3.3,0c-0.6,0-1-0.4-1-1l0-3.3C16.8,0.4,17.2,0,17.8,0
			z"/>
		<path fill="#4A4A4A" d="M24.1,0l3.3,0c0.6,0,1,0.4,1,1l0,3.3c0,0.6-0.4,1-1,1l-3.3,0c-0.6,0-1-0.4-1-1l0-3.3
			C23.1,0.4,23.6,0,24.1,0z"/>
		<path fill="#4A4A4A" d="M30.4,0l3.3,0c0.6,0,1,0.4,1,1v3.3c0,0.6-0.4,1-1,1l-3.3,0c-0.6,0-1-0.4-1-1V1C29.4,0.4,29.9,0,30.4,0z"/>
		<path fill="#4A4A4A" d="M36.8,0l3.3,0c0.6,0,1,0.4,1,1v3.3c0,0.6-0.4,1-1,1l-3.3,0c-0.6,0-1-0.4-1-1l0-3.3C35.8,0.4,36.2,0,36.8,0
			z"/>
		<path fill="#4A4A4A" d="M43.1,0l3.3,0c0.6,0,1,0.4,1,1v3.3c0,0.6-0.4,1-1,1l-3.3,0c-0.6,0-1-0.4-1-1V1C42.1,0.4,42.5,0,43.1,0z"/>
		<path fill="#4A4A4A" d="M49.4,0l3.3,0c0.6,0,1,0.4,1,1v3.3c0,0.6-0.4,1-1,1l-3.3,0c-0.6,0-1-0.4-1-1V1C48.4,0.4,48.9,0,49.4,0z"/>
		<path fill="#4A4A4A" d="M55.7,0l3.3,0c0.6,0,1,0.4,1,1v3.3c0,0.6-0.4,1-1,1l-3.3,0c-0.6,0-1-0.4-1-1V1C54.7,0.4,55.2,0,55.7,0z"/>
		<path fill="#4A4A4A" d="M62.1,0l3.3,0c0.6,0,1,0.4,1,1v3.3c0,0.6-0.4,1-1,1l-3.3,0c-0.6,0-1-0.4-1-1V1C61.1,0.4,61.5,0,62.1,0z"/>
		<path fill="#4A4A4A" d="M68.4,0l3.3,0c0.6,0,1,0.4,1,1v3.3c0,0.6-0.4,1-1,1l-3.3,0c-0.6,0-1-0.4-1-1V1C67.4,0.4,67.8,0,68.4,0z"/>
		<path fill-rule="evenodd" clip-rule="evenodd" fill="#4A4A4A" d="M1.1,0l13.4,0c0.6,0,1.1,0.5,1.1,1.1c0,0,0,0,0,0l0,3.2
			c0,0.6-0.5,1.1-1.1,1.1l0,0l-13.4,0C0.5,5.3,0,4.8,0,4.2l0-3.2C0,0.5,0.5,0,1.1,0z M75,0l13.4,0c0.6,0,1.1,0.5,1.1,1.1
			c0,0,0,0,0,0v3.2c0,0.6-0.5,1.1-1.1,1.1l0,0L75,5.3c-0.6,0-1.1-0.5-1.1-1.1c0,0,0,0,0,0V1.1C73.9,0.5,74.4,0,75,0C75,0,75,0,75,0z
			"/>
	</g>
	<g transform="translate(1.531 10.261)">
		<path fill-rule="evenodd" clip-rule="evenodd" fill="#4A4A4A" d="M1.1,0l5.1,0c0.6,0,1.1,0.5,1.1,1.1l0,3.1c0,0.6-0.5,1.1-1.1,1.1
			l-5.1,0C0.5,5.3,0,4.8,0,4.2l0-3.1C0,0.5,0.5,0,1.1,0C1.1,0,1.1,0,1.1,0z"/>
		<path fill="#4A4A4A" d="M9.3,0l3.3,0c0.6,0,1,0.4,1,1l0,3.3c0,0.6-0.4,1-1,1l-3.3,0c-0.6,0-1-0.4-1-1l0-3.3C8.3,0.4,8.7,0,9.3,0z"
			/>
		<path fill="#4A4A4A" d="M15.6,0L19,0c0.6,0,1,0.4,1,1v3.3c0,0.6-0.4,1-1,1l-3.3,0c-0.6,0-1-0.4-1-1V1C14.6,0.4,15.1,0,15.6,0z"/>
		<path fill="#4A4A4A" d="M21.9,0l3.3,0c0.6,0,1,0.4,1,1l0,3.3c0,0.6-0.4,1-1,1l-3.3,0c-0.6,0-1-0.4-1-1V1C20.9,0.4,21.4,0,21.9,0z"
			/>
		<path fill="#4A4A4A" d="M28.3,0l3.3,0c0.6,0,1,0.4,1,1v3.3c0,0.6-0.4,1-1,1l-3.3,0c-0.6,0-1-0.4-1-1V1C27.3,0.4,27.7,0,28.3,0z"/>
		<path fill="#4A4A4A" d="M34.6,0l3.3,0c0.6,0,1,0.4,1,1l0,3.3c0,0.6-0.4,1-1,1l-3.3,0c-0.6,0-1-0.4-1-1V1C33.6,0.4,34,0,34.6,0z"/>
		<path fill="#4A4A4A" d="M40.9,0l3.3,0c0.6,0,1,0.4,1,1v3.3c0,0.6-0.4,1-1,1l-3.3,0c-0.6,0-1-0.4-1-1V1C39.9,0.4,40.4,0,40.9,0z"/>
		<path fill="#4A4A4A" d="M47.2,0l3.3,0c0.6,0,1,0.4,1,1v3.3c0,0.6-0.4,1-1,1l-3.3,0c-0.6,0-1-0.4-1-1V1C46.2,0.4,46.7,0,47.2,0z"/>
		<path fill="#4A4A4A" d="M53.6,0l3.3,0c0.6,0,1,0.4,1,1v3.3c0,0.6-0.4,1-1,1l-3.3,0c-0.6,0-1-0.4-1-1l0-3.3C52.6,0.4,53,0,53.6,0z"
			/>
		<path fill="#4A4A4A" d="M59.9,0l3.3,0c0.6,0,1,0.4,1,1l0,3.3c0,0.6-0.4,1-1,1l-3.3,0c-0.6,0-1-0.4-1-1l0-3.3
			C58.9,0.4,59.3,0,59.9,0z"/>
		<path fill="#4A4A4A" d="M66.2,0l3.3,0c0.6,0,1,0.4,1,1v3.3c0,0.6-0.4,1-1,1l-3.3,0c-0.6,0-1-0.4-1-1V1C65.2,0.4,65.7,0,66.2,0z"/>
		<path fill="#4A4A4A" d="M72.5,0l3.3,0c0.6,0,1,0.4,1,1v3.3c0,0.6-0.4,1-1,1l-3.3,0c-0.6,0-1-0.4-1-1V1C71.5,0.4,72,0,72.5,0z"/>
		<path fill="#4A4A4A" d="M78.9,0l3.3,0c0.6,0,1,0.4,1,1v3.3c0,0.6-0.4,1-1,1l-3.3,0c-0.6,0-1-0.4-1-1V1C77.9,0.4,78.3,0,78.9,0z"/>
		<path fill="#4A4A4A" d="M85.2,0l3.3,0c0.6,0,1,0.4,1,1v3.3c0,0.6-0.4,1-1,1l-3.3,0c-0.6,0-1-0.4-1-1l0-3.3C84.2,0.4,84.6,0,85.2,0
			z"/>
	</g>
	<g transform="rotate(180 45.525 4.773)">
		<path fill-rule="evenodd" clip-rule="evenodd" fill="#4A4A4A" d="M1.1,0l5.1,0c0.6,0,1.1,0.5,1.1,1.1l0,3.2c0,0.6-0.5,1.1-1.1,1.1
			l-5.1,0C0.5,5.3,0,4.8,0,4.2l0-3.2C0,0.5,0.5,0,1.1,0z"/>
		<path fill="#4A4A4A" d="M9.3,0l3.3,0c0.6,0,1,0.4,1,1v3.3c0,0.6-0.4,1-1,1l-3.3,0c-0.6,0-1-0.4-1-1V1C8.3,0.4,8.7,0,9.3,0z"/>
		<path fill="#4A4A4A" d="M15.6,0L19,0c0.6,0,1,0.4,1,1v3.3c0,0.6-0.4,1-1,1l-3.3,0c-0.6,0-1-0.4-1-1l0-3.3C14.6,0.4,15.1,0,15.6,0z
			"/>
		<path fill="#4A4A4A" d="M21.9,0l3.3,0c0.6,0,1,0.4,1,1v3.3c0,0.6-0.4,1-1,1l-3.3,0c-0.6,0-1-0.4-1-1V1C20.9,0.4,21.4,0,21.9,0z"/>
		<path fill="#4A4A4A" d="M28.3,0l3.3,0c0.6,0,1,0.4,1,1v3.3c0,0.6-0.4,1-1,1l-3.3,0c-0.6,0-1-0.4-1-1V1C27.3,0.4,27.7,0,28.3,0z"/>
		<path fill="#4A4A4A" d="M34.6,0l3.3,0c0.6,0,1,0.4,1,1v3.3c0,0.6-0.4,1-1,1l-3.3,0c-0.6,0-1-0.4-1-1V1C33.6,0.4,34,0,34.6,0z"/>
		<path fill="#4A4A4A" d="M40.9,0l3.3,0c0.6,0,1,0.4,1,1v3.3c0,0.6-0.4,1-1,1l-3.3,0c-0.6,0-1-0.4-1-1V1C39.9,0.4,40.4,0,40.9,0z"/>
		<path fill="#4A4A4A" d="M47.2,0l3.3,0c0.6,0,1,0.4,1,1v3.3c0,0.6-0.4,1-1,1l-3.3,0c-0.6,0-1-0.4-1-1l0-3.3C46.2,0.4,46.7,0,47.2,0
			z"/>
		<path fill="#4A4A4A" d="M53.6,0l3.3,0c0.6,0,1,0.4,1,1v3.3c0,0.6-0.4,1-1,1l-3.3,0c-0.6,0-1-0.4-1-1V1C52.6,0.4,53,0,53.6,0z"/>
		<path fill="#4A4A4A" d="M59.9,0l3.3,0c0.6,0,1,0.4,1,1v3.3c0,0.6-0.4,1-1,1l-3.3,0c-0.6,0-1-0.4-1-1V1C58.9,0.4,59.3,0,59.9,0z"/>
		<path fill="#4A4A4A" d="M66.2,0l3.3,0c0.6,0,1,0.4,1,1v3.3c0,0.6-0.4,1-1,1l-3.3,0c-0.6,0-1-0.4-1-1V1C65.2,0.4,65.7,0,66.2,0z"/>
		<path fill="#4A4A4A" d="M72.5,0l3.3,0c0.6,0,1,0.4,1,1v3.3c0,0.6-0.4,1-1,1l-3.3,0c-0.6,0-1-0.4-1-1V1C71.5,0.4,72,0,72.5,0z"/>
		<path fill="#4A4A4A" d="M78.9,0l3.3,0c0.6,0,1,0.4,1,1v3.3c0,0.6-0.4,1-1,1l-3.3,0c-0.6,0-1-0.4-1-1V1C77.9,0.4,78.3,0,78.9,0z"/>
		<path fill="#4A4A4A" d="M85.2,0l3.3,0c0.6,0,1,0.4,1,1v3.3c0,0.6-0.4,1-1,1l-3.3,0c-0.6,0-1-0.4-1-1V1C84.2,0.4,84.6,0,85.2,0z"/>
		<path fill="#4A4A4A" d="M9.3,0l3.3,0c0.6,0,1,0.4,1,1v3.3c0,0.6-0.4,1-1,1l-3.3,0c-0.6,0-1-0.4-1-1V1C8.3,0.4,8.7,0,9.3,0z"/>
		<path fill="#4A4A4A" d="M15.6,0L19,0c0.6,0,1,0.4,1,1v3.3c0,0.6-0.4,1-1,1l-3.3,0c-0.6,0-1-0.4-1-1l0-3.3C14.6,0.4,15.1,0,15.6,0z
			"/>
		<path fill="#4A4A4A" d="M21.9,0l3.3,0c0.6,0,1,0.4,1,1v3.3c0,0.6-0.4,1-1,1l-3.3,0c-0.6,0-1-0.4-1-1V1C20.9,0.4,21.4,0,21.9,0z"/>
		<path fill="#4A4A4A" d="M28.3,0l3.3,0c0.6,0,1,0.4,1,1v3.3c0,0.6-0.4,1-1,1l-3.3,0c-0.6,0-1-0.4-1-1V1C27.3,0.4,27.7,0,28.3,0z"/>
		<path fill="#4A4A4A" d="M34.6,0l3.3,0c0.6,0,1,0.4,1,1v3.3c0,0.6-0.4,1-1,1l-3.3,0c-0.6,0-1-0.4-1-1V1C33.6,0.4,34,0,34.6,0z"/>
		<path fill="#4A4A4A" d="M40.9,0l3.3,0c0.6,0,1,0.4,1,1v3.3c0,0.6-0.4,1-1,1l-3.3,0c-0.6,0-1-0.4-1-1V1C39.9,0.4,40.4,0,40.9,0z"/>
		<path fill="#4A4A4A" d="M47.2,0l3.3,0c0.6,0,1,0.4,1,1v3.3c0,0.6-0.4,1-1,1l-3.3,0c-0.6,0-1-0.4-1-1l0-3.3C46.2,0.4,46.7,0,47.2,0
			z"/>
		<path fill="#4A4A4A" d="M53.6,0l3.3,0c0.6,0,1,0.4,1,1v3.3c0,0.6-0.4,1-1,1l-3.3,0c-0.6,0-1-0.4-1-1V1C52.6,0.4,53,0,53.6,0z"/>
		<path fill="#4A4A4A" d="M59.9,0l3.3,0c0.6,0,1,0.4,1,1v3.3c0,0.6-0.4,1-1,1l-3.3,0c-0.6,0-1-0.4-1-1V1C58.9,0.4,59.3,0,59.9,0z"/>
		<path fill="#4A4A4A" d="M66.2,0l3.3,0c0.6,0,1,0.4,1,1v3.3c0,0.6-0.4,1-1,1l-3.3,0c-0.6,0-1-0.4-1-1V1C65.2,0.4,65.7,0,66.2,0z"/>
		<path fill="#4A4A4A" d="M72.5,0l3.3,0c0.6,0,1,0.4,1,1v3.3c0,0.6-0.4,1-1,1l-3.3,0c-0.6,0-1-0.4-1-1V1C71.5,0.4,72,0,72.5,0z"/>
		<path fill="#4A4A4A" d="M78.9,0l3.3,0c0.6,0,1,0.4,1,1v3.3c0,0.6-0.4,1-1,1l-3.3,0c-0.6,0-1-0.4-1-1V1C77.9,0.4,78.3,0,78.9,0z"/>
		<path fill="#4A4A4A" d="M85.2,0l3.3,0c0.6,0,1,0.4,1,1v3.3c0,0.6-0.4,1-1,1l-3.3,0c-0.6,0-1-0.4-1-1V1C84.2,0.4,84.6,0,85.2,0z"/>
	</g>
	<g>
		<path fill-rule="evenodd" clip-rule="evenodd" fill="#4A4A4A" d="M2.6,16.6l7.3,0c0.6,0,1.1,0.5,1.1,1.1l0,3.1
			c0,0.6-0.5,1.1-1.1,1.1h0l-7.3,0c-0.6,0-1.1-0.5-1.1-1.1l0-3.1C1.5,17.1,2,16.6,2.6,16.6C2.6,16.6,2.6,16.6,2.6,16.6z"/>
		<g transform="translate(12.202 16.584)">
			<path fill="#4A4A4A" d="M1,0l3.3,0c0.6,0,1,0.4,1,1l0,3.3c0,0.6-0.4,1-1,1L1,5.3c-0.6,0-1-0.4-1-1L0,1C0,0.4,0.4,0,1,0z"/>
			<path fill="#4A4A4A" d="M7.3,0l3.3,0c0.6,0,1,0.4,1,1v3.3c0,0.6-0.4,1-1,1l-3.3,0c-0.6,0-1-0.4-1-1l0-3.3C6.3,0.4,6.8,0,7.3,0z"
				/>
			<path fill="#4A4A4A" d="M13.6,0L17,0c0.6,0,1,0.4,1,1l0,3.3c0,0.6-0.4,1-1,1l-3.3,0c-0.6,0-1-0.4-1-1V1C12.6,0.4,13.1,0,13.6,0z"
				/>
			<path fill="#4A4A4A" d="M20,0l3.3,0c0.6,0,1,0.4,1,1v3.3c0,0.6-0.4,1-1,1l-3.3,0c-0.6,0-1-0.4-1-1V1C19,0.4,19.4,0,20,0z"/>
			<path fill="#4A4A4A" d="M26.3,0l3.3,0c0.6,0,1,0.4,1,1l0,3.3c0,0.6-0.4,1-1,1l-3.3,0c-0.6,0-1-0.4-1-1l0-3.3
				C25.3,0.4,25.7,0,26.3,0z"/>
			<path fill="#4A4A4A" d="M32.6,0L36,0c0.6,0,1,0.4,1,1v3.3c0,0.6-0.4,1-1,1l-3.3,0c-0.6,0-1-0.4-1-1V1C31.6,0.4,32.1,0,32.6,0z"/>
			<path fill="#4A4A4A" d="M38.9,0l3.3,0c0.6,0,1,0.4,1,1l0,3.3c0,0.6-0.4,1-1,1l-3.3,0c-0.6,0-1-0.4-1-1V1C37.9,0.4,38.4,0,38.9,0z
				"/>
			<path fill="#4A4A4A" d="M45.3,0l3.3,0c0.6,0,1,0.4,1,1v3.3c0,0.6-0.4,1-1,1l-3.3,0c-0.6,0-1-0.4-1-1V1C44.3,0.4,44.7,0,45.3,0z"
				/>
			<path fill="#4A4A4A" d="M51.6,0l3.3,0c0.6,0,1,0.4,1,1v3.3c0,0.6-0.4,1-1,1l-3.3,0c-0.6,0-1-0.4-1-1V1C50.6,0.4,51,0,51.6,0z"/>
			<path fill="#4A4A4A" d="M57.9,0l3.3,0c0.6,0,1,0.4,1,1v3.3c0,0.6-0.4,1-1,1l-3.3,0c-0.6,0-1-0.4-1-1V1C56.9,0.4,57.4,0,57.9,0z"
				/>
			<path fill="#4A4A4A" d="M64.2,0l3.3,0c0.6,0,1,0.4,1,1l0,3.3c0,0.6-0.4,1-1,1l-3.3,0c-0.6,0-1-0.4-1-1l0-3.3
				C63.2,0.4,63.7,0,64.2,0z"/>
		</g>
		<path fill-rule="evenodd" clip-rule="evenodd" fill="#4A4A4A" d="M83.1,16.6l6.9,0c0.6,0,1.1,0.5,1.1,1.1v3.1
			c0,0.6-0.5,1.1-1.1,1.1l-6.9,0c-0.6,0-1.1-0.5-1.1-1.1v0v-3.1C82,17.1,82.4,16.6,83.1,16.6C83.1,16.6,83.1,16.6,83.1,16.6
			L83.1,16.6z"/>
	</g>
	<g transform="translate(1.531 29.627)">
		<path fill="#4A4A4A" d="M1,0l3.3,0c0.6,0,1,0.4,1,1l0,3.3c0,0.6-0.4,1-1,1L1,5.3c-0.6,0-1-0.4-1-1L0,1C0,0.4,0.4,0,1,0z"/>
		<path fill="#4A4A4A" d="M7.3,0l3.3,0c0.6,0,1,0.4,1,1l0,3.3c0,0.6-0.4,1-1,1l-3.3,0c-0.6,0-1-0.4-1-1l0-3.3C6.3,0.4,6.8,0,7.3,0z"
			/>
		<path fill="#4A4A4A" d="M13.6,0L17,0c0.6,0,1,0.4,1,1v3.3c0,0.6-0.4,1-1,1l-3.3,0c-0.6,0-1-0.4-1-1l0-3.3C12.6,0.4,13.1,0,13.6,0z
			"/>
		<path fill="#4A4A4A" d="M20,0l3.3,0c0.6,0,1,0.4,1,1v3.3c0,0.6-0.4,1-1,1l-3.3,0c-0.6,0-1-0.4-1-1V1C19,0.4,19.4,0,20,0z"/>
		<path fill-rule="evenodd" clip-rule="evenodd" fill="#4A4A4A" d="M26.4,0l30.4,0c0.6,0,1.1,0.5,1.1,1.1v3.2c0,0.6-0.5,1.1-1.1,1.1
			l-30.4,0c-0.6,0-1.1-0.5-1.1-1.1c0,0,0,0,0,0V1.1C25.3,0.5,25.8,0,26.4,0C26.4,0,26.4,0,26.4,0z M60,0l3.9,0C64.5,0,65,0.5,65,1.1
			c0,0,0,0,0,0v3.2c0,0.6-0.5,1.1-1.1,1.1l-3.9,0c-0.6,0-1.1-0.5-1.1-1.1V1.1C58.9,0.5,59.4,0,60,0z"/>
		<path fill="#4A4A4A" d="M67,0l3.3,0c0.6,0,1,0.4,1,1v3.3c0,0.6-0.4,1-1,1l-3.3,0c-0.6,0-1-0.4-1-1V1C66,0.4,66.5,0,67,0z"/>
		<path fill="#4A4A4A" d="M73.3,0l3.3,0c0.6,0,1,0.4,1,1v3.3c0,0.6-0.4,1-1,1l-3.3,0c-0.6,0-1-0.4-1-1V1C72.3,0.4,72.8,0,73.3,0z"/>
		<path fill="#4A4A4A" d="M85.2,0l3.3,0c0.6,0,1,0.4,1,1v3.3c0,0.6-0.4,1-1,1l-3.3,0c-0.6,0-1-0.4-1-1V1C84.2,0.4,84.6,0,85.2,0z"/>
		<path fill="#4A4A4A" d="M78.3,2.3V1.1c0-0.6,0.5-1.1,1.1-1.1c0,0,0,0,0,0l3.2,0c0.6,0,1.1,0.5,1.1,1.1c0,0,0,0,0,0v1.2L78.3,2.3z"
			/>
		<path fill="#4A4A4A" d="M83.6,3.1v1.2c0,0.6-0.5,1.1-1.1,1.1l0,0l-3.2,0c-0.6,0-1.1-0.5-1.1-1.1c0,0,0,0,0,0V3.1L83.6,3.1z"/>
	</g>
	<path fill="#4A4A4A" d="M3,1.2l86.8,0c0.6,0,1.1,0.5,1.1,1.1v0.2c0,0.6-0.5,1.1-1.1,1.1L3,3.5c-0.6,0-1.1-0.5-1.1-1.1V2.3
		C1.9,1.7,2.4,1.2,3,1.2z"/>
	<path opacity="0.136" fill="#D8D8D8" d="M4.8,1.6l3.5,0c0.4,0,0.7,0.3,0.7,0.7v0.1c0,0.4-0.3,0.7-0.7,0.7l-3.5,0
		c-0.4,0-0.7-0.3-0.7-0.7V2.3C4.1,1.9,4.4,1.6,4.8,1.6z"/>
	<path opacity="0.136" fill="#D8D8D8" d="M11.6,1.6l3.5,0c0.4,0,0.7,0.3,0.7,0.7v0.1c0,0.4-0.3,0.7-0.7,0.7l-3.5,0
		c-0.4,0-0.7-0.3-0.7-0.7V2.3C10.9,1.9,11.2,1.6,11.6,1.6z"/>
	<path opacity="0.136" fill="#D8D8D8" d="M16.9,1.6l3.5,0c0.4,0,0.7,0.3,0.7,0.7l0,0.1c0,0.4-0.3,0.7-0.7,0.7l-3.5,0
		c-0.4,0-0.7-0.3-0.7-0.7V2.3C16.2,1.9,16.5,1.6,16.9,1.6z"/>
	<path opacity="0.136" fill="#D8D8D8" d="M22.1,1.6l3.5,0c0.4,0,0.7,0.3,0.7,0.7v0.1c0,0.4-0.3,0.7-0.7,0.7l-3.5,0
		c-0.4,0-0.7-0.3-0.7-0.7V2.3C21.4,1.9,21.7,1.6,22.1,1.6z"/>
	<path opacity="0.136" fill="#D8D8D8" d="M27.4,1.6l3.5,0c0.4,0,0.7,0.3,0.7,0.7v0.1c0,0.4-0.3,0.7-0.7,0.7l-3.5,0
		c-0.4,0-0.7-0.3-0.7-0.7V2.3C26.7,1.9,27,1.6,27.4,1.6z"/>
	<path opacity="0.136" fill="#D8D8D8" d="M34,1.6l3.5,0c0.4,0,0.7,0.3,0.7,0.7v0.1c0,0.4-0.3,0.7-0.7,0.7l-3.5,0
		c-0.4,0-0.7-0.3-0.7-0.7V2.3C33.2,1.9,33.6,1.6,34,1.6z"/>
	<path opacity="0.136" fill="#D8D8D8" d="M39.2,1.6l3.5,0c0.4,0,0.7,0.3,0.7,0.7v0.1c0,0.4-0.3,0.7-0.7,0.7l-3.5,0
		c-0.4,0-0.7-0.3-0.7-0.7V2.3C38.5,1.9,38.8,1.6,39.2,1.6z"/>
	<path opacity="0.136" fill="#D8D8D8" d="M44.5,1.6l3.5,0c0.4,0,0.7,0.3,0.7,0.7v0.1c0,0.4-0.3,0.7-0.7,0.7l-3.5,0
		c-0.4,0-0.7-0.3-0.7-0.7V2.3C43.7,1.9,44.1,1.6,44.5,1.6z"/>
	<path opacity="0.136" fill="#D8D8D8" d="M49.7,1.6l3.5,0c0.4,0,0.7,0.3,0.7,0.7v0.1c0,0.4-0.3,0.7-0.7,0.7l-3.5,0
		c-0.4,0-0.7-0.3-0.7-0.7V2.3C49,1.9,49.3,1.6,49.7,1.6z"/>
	<path opacity="0.136" fill="#D8D8D8" d="M56.3,1.6l3.5,0c0.4,0,0.7,0.3,0.7,0.7v0.1c0,0.4-0.3,0.7-0.7,0.7l-3.5,0
		c-0.4,0-0.7-0.3-0.7-0.7V2.3C55.5,1.9,55.9,1.6,56.3,1.6z"/>
	<path opacity="0.136" fill="#D8D8D8" d="M61.5,1.6l3.5,0c0.4,0,0.7,0.3,0.7,0.7v0.1c0,0.4-0.3,0.7-0.7,0.7l-3.5,0
		c-0.4,0-0.7-0.3-0.7-0.7V2.3C60.8,1.9,61.1,1.6,61.5,1.6z"/>
	<path opacity="0.136" fill="#D8D8D8" d="M66.8,1.6l3.5,0c0.4,0,0.7,0.3,0.7,0.7v0.1c0,0.4-0.3,0.7-0.7,0.7l-3.5,0
		c-0.4,0-0.7-0.3-0.7-0.7V2.3C66,1.9,66.4,1.6,66.8,1.6z"/>
	<path opacity="0.136" fill="#D8D8D8" d="M73.3,1.6l3.5,0c0.4,0,0.7,0.3,0.7,0.7v0.1c0,0.4-0.3,0.7-0.7,0.7l-3.5,0
		c-0.4,0-0.7-0.3-0.7-0.7V2.3C72.6,1.9,72.9,1.6,73.3,1.6z"/>
	<path opacity="0.136" fill="#D8D8D8" d="M78.6,1.6l3.5,0c0.4,0,0.7,0.3,0.7,0.7v0.1c0,0.4-0.3,0.7-0.7,0.7l-3.5,0
		c-0.4,0-0.7-0.3-0.7-0.7V2.3C77.8,1.9,78.2,1.6,78.6,1.6z"/>
	<path opacity="0.136" fill="#D8D8D8" d="M83.8,1.6l3.5,0c0.4,0,0.7,0.3,0.7,0.7v0.1c0,0.4-0.3,0.7-0.7,0.7l-3.5,0
		c-0.4,0-0.7-0.3-0.7-0.7V2.3C83.1,1.9,83.4,1.6,83.8,1.6z"/>
</g>
<g id="Layer_2_00000044177190501235806810000009386408243327174275_">
	<g id="Layer_1-2">
		<g>
			<path fill="#FFD700" d="M392.2,509.2V569h-24.7c-20.5,0-40.5-6.2-57.3-18c1.4,0.1,2.7,0.1,4.1,0.1
				C345.8,551.2,375,535.4,392.2,509.2z"/>
			<path fill="#0057B8" d="M392.2,486.1v23.1c-17.2,26.2-46.5,42-77.8,42c-1.4,0-2.7,0-4.1-0.1c-27-18.7-43.1-49.5-43.1-82.4
				c0-22.9,18.6-41.5,41.5-41.5c0,0,0,0,0,0h24.7C365.9,427.2,392.2,453.6,392.2,486.1C392.2,486.1,392.2,486.1,392.2,486.1z"/>
			<path fill="#FFFFFF" d="M294.5,458.2h2.5c12.9,0,23.4,10.5,23.4,23.4l0,0V523l0,0h-2.5c-22,0-39.8-17.8-39.8-39.8c0,0,0,0,0,0
				v-8.5C278,465.6,285.4,458.2,294.5,458.2L294.5,458.2z"/>
			<path fill="#FFFFFF" d="M344.5,523h-2.5l0,0v-41.4c0-12.9,10.5-23.4,23.4-23.4h2.5c9.1,0,16.5,7.4,16.5,16.5v8.5
				C384.4,505.1,366.5,523,344.5,523z"/>
			<g id="Layer_2-2">
				<g id="Layer_1-2-2">
					<path fill="#FFFFFF" d="M322.3,450.1c-0.1,1.5,1.1,2.8,2.5,2.8h0.2c1.5,0,2.7-1.2,2.7-2.7c0-1.5-1.2-2.7-2.7-2.7
						C323.5,447.5,322.4,448.7,322.3,450.1z"/>
					<path fill="#FFFFFF" d="M312.2,449.4c-0.5,0-0.9,0.3-0.9,0.8c0,0.5,0.3,0.9,0.8,0.9c0.5,0,0.9-0.3,0.9-0.8
						C313.1,449.8,312.7,449.4,312.2,449.4C312.2,449.4,312.2,449.4,312.2,449.4z"/>
					<path fill="#FFFFFF" d="M322.1,434.4c0.4-0.2,0.6-0.7,0.4-1.2c-0.2-0.4-0.7-0.6-1.2-0.4c0,0,0,0,0,0c-0.4,0.2-0.6,0.7-0.4,1.2
						C321.2,434.5,321.7,434.7,322.1,434.4z"/>
					<path fill="#FFFFFF" d="M324.8,439.2c0.7-0.3,0.9-1.1,0.6-1.8c-0.3-0.7-1.1-0.9-1.8-0.6c-0.7,0.3-0.9,1.1-0.6,1.8c0,0,0,0,0,0
						C323.4,439.3,324.2,439.5,324.8,439.2z"/>
					<path fill="#FFFFFF" d="M315.7,442.5c0.5,0.3,1.2,0.2,1.5-0.3s0.2-1.2-0.3-1.5c-0.5-0.3-1.2-0.2-1.5,0.3c0,0,0,0,0,0l0,0
						C315,441.5,315.1,442.1,315.7,442.5C315.6,442.5,315.6,442.5,315.7,442.5z"/>
					<path fill="#FFFFFF" d="M317.3,448.9c-0.7,0-1.4,0.5-1.4,1.3c0,0.7,0.5,1.4,1.3,1.4c0.7,0,1.4-0.5,1.4-1.3l0,0
						C318.6,449.6,318,449,317.3,448.9z"/>
					<path fill="#FFFFFF" d="M315.8,457.9c-0.5,0.3-0.8,0.9-0.5,1.5s0.9,0.8,1.5,0.5c0.5-0.3,0.8-0.9,0.5-1.5l0,0
						C317,457.9,316.3,457.7,315.8,457.9z"/>
					<path fill="#FFFFFF" d="M321,446.1c0.7,0.5,1.7,0.3,2.2-0.5c0.5-0.7,0.3-1.7-0.5-2.2c-0.7-0.5-1.7-0.3-2.2,0.5c0,0,0,0,0,0
						C320.1,444.7,320.3,445.6,321,446.1C321,446.1,321,446.1,321,446.1z"/>
					<path fill="#FFFFFF" d="M337.6,439.1c0.6,0.4,1.5,0.2,1.9-0.4c0.4-0.6,0.2-1.5-0.4-1.9c-0.6-0.4-1.5-0.2-1.9,0.4c0,0,0,0,0,0
						l0,0C336.8,437.9,337,438.7,337.6,439.1C337.6,439.1,337.6,439.1,337.6,439.1z"/>
					<path fill="#FFFFFF" d="M340.4,434.4c0.4,0.3,0.9,0.1,1.2-0.3c0.3-0.4,0.1-0.9-0.3-1.2c-0.4-0.3-0.9-0.1-1.2,0.3
						C339.9,433.6,340,434.1,340.4,434.4z"/>
					<path fill="#FFFFFF" d="M337.8,447.5c-1.5-0.1-2.8,1.1-2.8,2.5s1.1,2.8,2.5,2.8h0.1c1.5,0,2.7-1.2,2.7-2.7
						C340.4,448.8,339.2,447.6,337.8,447.5z"/>
					<path fill="#FFFFFF" d="M325.7,445.9c0.7,1.3,2.3,1.9,3.6,1.2c1.3-0.7,1.9-2.3,1.2-3.6c-0.7-1.3-2.3-1.9-3.6-1.2
						C325.6,443,325.1,444.6,325.7,445.9C325.7,445.9,325.7,445.9,325.7,445.9z"/>
					<path fill="#FFFFFF" d="M346.8,442.5c0.5-0.3,0.8-1,0.5-1.5c-0.3-0.5-1-0.8-1.5-0.5c-0.5,0.3-0.8,0.9-0.5,1.5
						C345.6,442.5,346.3,442.8,346.8,442.5z"/>
					<path fill="#FFFFFF" d="M340,443.3c-0.8,0.4-1.1,1.3-0.7,2.1c0.4,0.8,1.3,1.1,2.1,0.7c0.8-0.4,1.1-1.3,0.7-2.1
						C341.7,443.3,340.8,443,340,443.3z"/>
					<path fill="#FFFFFF" d="M331.2,434c0.6,0,1.1-0.4,1.2-1c0-0.6-0.4-1.1-1-1.2c-0.6,0-1.1,0.4-1.2,1
						C330.1,433.4,330.6,433.9,331.2,434z"/>
					<path fill="#FFFFFF" d="M331.2,440.9c0.9,0,1.6-0.6,1.7-1.5c0-0.9-0.6-1.6-1.5-1.7c-0.9,0-1.6,0.6-1.7,1.5
						C329.7,440.1,330.3,440.9,331.2,440.9C331.2,440.9,331.2,440.9,331.2,440.9z"/>
					<path fill="#FFFFFF" d="M322.6,457.1c0.8-0.4,1.1-1.3,0.7-2.1c-0.4-0.8-1.3-1.1-2.1-0.7s-1.1,1.3-0.7,2.1
						C320.9,457.2,321.8,457.5,322.6,457.1z"/>
					<path fill="#FFFFFF" d="M332.2,443.2c-0.8,1.2-0.5,2.9,0.8,3.7c1.2,0.8,2.9,0.5,3.7-0.8s0.5-2.9-0.8-3.7
						c-0.4-0.3-1-0.4-1.5-0.4C333.6,442,332.7,442.5,332.2,443.2z"/>
					<path fill="#FFFFFF" d="M336.9,454.5c-0.7-1.3-2.3-1.9-3.6-1.2c-1.3,0.7-1.9,2.3-1.2,3.6c0.7,1.3,2.3,1.9,3.6,1.2l0,0
						C337,457.5,337.6,455.8,336.9,454.5C336.9,454.5,336.9,454.5,336.9,454.5L336.9,454.5z"/>
					<path fill="#FFFFFF" d="M341.6,454.3c-0.7-0.5-1.7-0.3-2.2,0.5c-0.5,0.7-0.3,1.7,0.5,2.2c0.7,0.5,1.7,0.3,2.2-0.5c0,0,0,0,0,0
						C342.5,455.8,342.4,454.8,341.6,454.3C341.6,454.3,341.6,454.3,341.6,454.3z"/>
					<path fill="#FFFFFF" d="M346.8,450.3c0-0.7-0.5-1.4-1.3-1.4c-0.7,0-1.4,0.5-1.4,1.3c0,0.7,0.5,1.4,1.3,1.4l0,0
						C346.1,451.6,346.7,451,346.8,450.3z"/>
					<path fill="#FFFFFF" d="M350.5,449.3c-0.5,0-0.9,0.3-0.9,0.8s0.3,0.9,0.8,0.9s0.9-0.3,0.9-0.8
						C351.3,449.7,351,449.3,350.5,449.3z"/>
					<path fill="#FFFFFF" d="M347,457.9c-0.5-0.3-1.2-0.2-1.5,0.3c-0.3,0.5-0.2,1.2,0.3,1.5c0.5,0.3,1.2,0.2,1.5-0.3
						C347.6,459,347.5,458.3,347,457.9C347,457.9,347,457.9,347,457.9z"/>
					<path fill="#FFFFFF" d="M322.3,466.1c-0.4-0.3-0.9-0.2-1.2,0.2c-0.3,0.4-0.2,0.9,0.2,1.2c0.4,0.3,0.9,0.2,1.2-0.2l0,0
						C322.8,466.9,322.7,466.4,322.3,466.1C322.3,466.1,322.3,466.1,322.3,466.1z"/>
					<path fill="#FFFFFF" d="M340.5,466c-0.4,0.2-0.6,0.7-0.4,1.2c0.2,0.4,0.7,0.6,1.2,0.4c0,0,0,0,0,0c0.4-0.2,0.6-0.7,0.4-1.2
						C341.5,465.9,341,465.8,340.5,466z"/>
					<path fill="#FFFFFF" d="M330.4,457.2c0.8-1.2,0.5-2.9-0.8-3.7c-1.2-0.8-2.9-0.5-3.7,0.8c-0.8,1.2-0.5,2.9,0.8,3.7
						C327.9,458.8,329.6,458.4,330.4,457.2z"/>
					<path fill="#FFFFFF" d="M325,461.3c-0.6-0.4-1.5-0.2-1.9,0.4c-0.4,0.6-0.2,1.5,0.4,1.9c0.6,0.4,1.5,0.2,1.9-0.4l0,0
						C325.8,462.6,325.7,461.8,325,461.3C325,461.3,325,461.3,325,461.3z"/>
					<path fill="#FFFFFF" d="M331.3,466.5c-0.6,0-1.1,0.4-1.2,1s0.4,1.1,1,1.2c0.6,0,1.1-0.4,1.2-1
						C332.4,467,331.9,466.5,331.3,466.5z"/>
					<path fill="#FFFFFF" d="M331.3,459.5c-0.9,0-1.6,0.6-1.7,1.5s0.6,1.6,1.5,1.7c0.9,0,1.6-0.6,1.7-1.5
						C332.9,460.3,332.2,459.6,331.3,459.5C331.3,459.5,331.3,459.5,331.3,459.5z"/>
					<path fill="#FFFFFF" d="M337.8,461.2c-0.7,0.3-0.9,1.2-0.6,1.8s1.2,0.9,1.8,0.6c0.7-0.3,0.9-1.1,0.6-1.8
						C339.3,461.2,338.5,460.9,337.8,461.2C337.8,461.2,337.8,461.2,337.8,461.2z"/>
				</g>
			</g>
		</g>
	</g>
</g>
<path fill="none" d="M670.8,237.2c0,55.3,44.7,100,100,100"/>
<path fill="none" d="M770.8,337.2c0,55.3,44.7,100,100,100"/>
</svg>
