<?xml version="1.0" encoding="utf-8"?>
<!-- Generator: Adobe Illustrator 26.0.3, SVG Export Plug-In . SVG Version: 6.00 Build 0)  -->
<svg version="1.1" baseProfile="basic" id="Layer_1"
	 xmlns="http://www.w3.org/2000/svg" xmlns:xlink="http://www.w3.org/1999/xlink" x="0px" y="0px" viewBox="0 0 1041.3 554.1"
	 xml:space="preserve">
<style type="text/css">
	.st0{fill:#F2F2F2;}
	.st1{opacity:0.1;}
	.st2{fill:#65617D;}
	.st3{opacity:0.2;}
	.st4{fill:#3F3D56;}
	.st5{fill:#39374D;}
	.st6{fill:#4267B2;}
	.st7{fill:#FBBEBE;}
	.st8{fill:#FF6584;}
	.st9{fill:#61DAFB;}
	.st10{fill:#FFD700;}
	.st11{fill:#0057B8;}
	.st12{fill:#FFFFFF;}
</style>
<g>
	<g transform="translate(-.011 -.035)">
		<path class="st0" d="M961.5,438.2c-1.2,2.5-2.3,5-3.5,7.4c-1.8,3.8-3.6,7.5-5.3,11.1c-0.8,1.6-1.6,3.2-2.3,4.8
			c-8.6,17.6-16.6,33.1-23.5,45.9c-12.6,23.6-37.1,38.4-63.8,38.7l-151.7,1.7h-1.6l-13,0.1l-11.1,0.1l-34.1,0.4h-1.4l-17.4,0.2h-0.5
			l-107,1.2l-95.5,1l-11.1,0.1l-69,0.8h-0.1l-44.8,0.5h-0.5l-141.5,1.5l-42.3,0.5c-3.6,0-7.2-0.1-10.8-0.5c-1.2-0.1-2.4-0.3-3.7-0.5
			c-19.7-3-37.8-12.8-51.3-27.5c-18.2-20-31.5-43.4-40.4-68.8c-1.3-3.7-2.5-7.4-3.6-11.1c-30.8-104.1,6.8-238.5,74.3-328.4
			c2.8-3.8,5.7-7.4,8.6-11l0.1-0.1c20.8-25.5,44.1-46.8,68.9-62c44-26.9,92.8-34.5,140.7-11.9c40.6,19.1,78.5,28.1,115.2,30.5
			c3.7,0.2,7.4,0.4,11.1,0.5C514.1,65.9,593,35.6,685.7,16c3.7-0.8,7.4-1.6,11.1-2.3C763,0.5,836.4-6.4,923.6,8.2
			c9.1,1.5,18,3.6,26.8,6.4c3.8,1.2,7.6,2.6,11.1,4c41.6,16.9,64.3,48.2,74,87.5c0.9,3.6,1.7,7.3,2.4,11.1
			C1055,211.5,1004.8,345.3,961.5,438.2z"/>
		<path class="st1" d="M497,445.6c-0.4,3.7-1,7.5-1.9,11.1h93.7v-11.1H497z M418.8,508.4l11.1-0.1v-27.5c-3.8-0.2-7.5-0.3-11.1-0.5
			V508.4z M185.8,445.6v11.1h198.5v-11.1H185.8z M1035.5,106.1h-74V18.6c-3.6-1.4-7.3-2.8-11.1-4v91.5H696.9V13.7
			c-3.7,0.7-7.4,1.5-11.1,2.3v90.1H429.9V63.2c-3.7-0.1-7.4-0.3-11.1-0.5v43.4H162.9v-62c-24.8,15.2-48.1,36.5-68.9,62h-0.1v0.1
			c-2.9,3.6-5.8,7.3-8.6,11h8.6v328.4h-83c1.1,3.8,2.3,7.5,3.6,11.1h79.4v93.6c4,1.2,8.1,2.2,12.2,2.8c1.2,0.2,2.4,0.3,3.7,0.5
			c3.6,0.4,7.2,0.6,10.8,0.5l42.3-0.5v-97h255.9v94.2l11.1-0.1v-94.1h255.9v91.4l11.1-0.1v-91.2h253.5v4.8c0.8-1.6,1.5-3.2,2.3-4.8
			c1.8-3.6,3.5-7.3,5.3-11.1c1.2-2.4,2.3-4.9,3.5-7.4v-321h76.4C1037.2,113.4,1036.4,109.7,1035.5,106.1z M162.9,445.6V117.2h255.9
			v328.4H162.9z M429.9,445.6V117.2h255.9v328.4H429.9z M950.4,445.6H696.9V117.2h253.5L950.4,445.6z"/>
		<path class="st2" d="M863.1,533.7v13l-151.9,1.4l-1.6,0l-57.7,0.5l-1.4,0l-17.5,0.2h-0.5l-107,1l-175.6,1.6h-0.1l-44.6,0.4l-0.5,0
			l-198.4,1.8v-15l46.6-28l93.6-0.8l2,0l0.7,0l2,0l44.9-0.4l2,0l0.6,0l2,0l14.4-0.1l0.4,0l35.5-0.3h0.3l277.4-2.3l6.8,0h0.7l5.2,0
			l37.7-0.3l2,0l1.8,0h1l11.7-0.1l2.3,0l3.1,0l9.8-0.1l15.5-0.1l2,0l3.5,0h0.7l74.7-0.6L863.1,533.7z"/>
		<path class="st3" d="M863.1,533.7v13l-151.9,1.4l-1.6,0l-57.7,0.5l-1.4,0l-17.5,0.2h-0.5l-107,1l-175.6,1.6h-0.1l-44.6,0.4l-0.5,0
			l-198.4,1.8v-15l46.6-28l93.6-0.8l2,0l0.7,0l2,0l44.9-0.4l2,0l0.6,0l2,0l14.4-0.1l0.4,0l35.5-0.3h0.3l277.4-2.3l6.8,0h0.7l5.2,0
			l37.7-0.3l2,0l1.8,0h1l11.7-0.1l2.3,0l3.1,0l9.8-0.1l15.5-0.1l2,0l3.5,0h0.7l74.7-0.6L863.1,533.7z"/>
		<path class="st4" d="M296.1,483.7v24.5c0,2.4-1.4,4.5-3.5,5.5c-0.8,0.4-1.6,0.6-2.5,0.6l-34.9,0.7c-0.9,0-1.9-0.2-2.7-0.6
			c-2.2-1-3.6-3.2-3.6-5.6v-25.2L296.1,483.7z"/>
		<path class="st1" d="M296.1,483.7v24.5c0,2.4-1.4,4.5-3.5,5.5c-0.8,0.4-1.6,0.6-2.5,0.6l-34.9,0.7c-0.9,0-1.9-0.2-2.7-0.6
			c-2.2-1-3.6-3.2-3.6-5.6v-25.2L296.1,483.7z"/>
		<path class="st4" d="M298.1,483.7v24.5c0,2.4-1.4,4.5-3.5,5.5c-0.8,0.4-1.6,0.6-2.5,0.6l-34.9,0.7c-0.9,0-1.9-0.2-2.7-0.6
			c-2.2-1-3.6-3.2-3.6-5.6v-25.2L298.1,483.7z"/>
		<path class="st4" d="M680.9,483.6h47.2v31.5h-47.2V483.6z"/>
		<path class="st1" d="M680.9,483.6h47.2v31.5h-47.2V483.6z"/>
		<path class="st4" d="M678.9,483.6h47.2v31.5h-47.2V483.6z"/>
		<path class="st1" d="M298.1,483.6v5l-47.2,1.3v-6.2H298.1z"/>
		<path class="st2" d="M381.4,312.4v168.2c0,2.1-1.7,3.9-3.9,4l-191.6,5.1h-0.1c-2.2,0-3.9-1.8-3.9-4V312.4c0-2.2,1.8-3.9,3.9-4
			h191.6C379.6,308.4,381.3,310.2,381.4,312.4L381.4,312.4z"/>
		<path class="st1" d="M185.9,308.4v181.2h-0.1c-2.2,0-3.9-1.8-3.9-4V312.4C181.9,310.2,183.6,308.4,185.9,308.4L185.9,308.4z"/>
		<path class="st5" d="M194.6,319.1h177.5v148.2l-177.5,4V319.1z"/>
		<path class="st1" d="M726.1,483.6v6.4l-47.2-1.3v-5.1H726.1z"/>
		<path class="st2" d="M788.3,312.4v173.3c0,2.2-1.8,4-4,4l-191.7-5.1c-2.1-0.1-3.8-1.8-3.8-4V312.4c0-2.2,1.8-3.9,4-4h191.6
			C786.5,308.4,788.3,310.2,788.3,312.4z"/>
		<path class="st1" d="M788.3,312.4v173.3c0,2.2-1.8,4-4,4V308.4C786.5,308.4,788.3,310.2,788.3,312.4z"/>
		<path class="st5" d="M775.6,319.1H598.1v148.2l177.5,4V319.1z"/>
		<path class="st2" d="M583.8,312.4v168.2c0,2.1-1.7,3.9-3.8,4l-191.6,5.1c-2.2,0-4-1.8-4-4V312.4c0-2.2,1.8-3.9,4-4h191.6
			C582.1,308.4,583.8,310.2,583.8,312.4L583.8,312.4z"/>
		<path class="st6" d="M397.1,319.1h177.5v148.2l-177.5,4L397.1,319.1z"/>
		<path class="st1" d="M863.1,533.7v13l-151.9,1.4l-1.6,0l-57.7,0.5l-1.4,0l-17.5,0.2h-0.5l-107,1l-175.6,1.6h-0.1l-44.6,0.4l-0.5,0
			l-198.4,1.8v-15l202.5-1.3h0.5l41-0.3h0.2l283.1-1.9h0.3l0.2,0h0.5l4.8,0h1.5l74.5-0.5l4.4,0l1,0L863.1,533.7z"/>
		<circle class="st7" cx="487.3" cy="298.1" r="51.3"/>
		<path class="st7" d="M538.6,377.2c0,0-99.5,12-90,0c3.4-4.3,4.4-17.2,4.2-31.9c-0.1-4.5-0.2-9.1-0.5-13.6
			c-1.1-22-3.8-43.5-3.8-43.5s87-41,77-8.5c-4,13.1-2.7,31.6,0.3,48.9c0.9,5,1.9,10,3,14.7C531.6,354.7,534.8,366,538.6,377.2
			L538.6,377.2z"/>
		<path class="st8" d="M506.1,373.1c11.5-2.1,23.7-6,34.5-1.5c2.8,1.2,5.5,2.9,8.4,3.9s6.1,1.2,9.2,1.9c10.7,2.4,19.3,10.5,24.9,20
			s8.4,20.1,11.3,30.7l6.9,25.8c6,22.5,12,45.1,13.4,68.3c-83.5,4.8-167.3,5.3-250.8,1.4c5.4-10.3,11-21.3,10.5-33
			s-7.2-23.2-4.8-34.7c1.5-7.3,6.6-13.4,9.6-20.2c8.8-19.5,1.9-45.8,17.3-60.6c6.9-6.7,17-9.2,26.6-8.9c12.3,0.4,24.9,4.2,37,6.1
			C475.8,374.6,490.5,376,506.1,373.1L506.1,373.1z"/>
		<path class="st1" d="M637,484.3l-0.1,1.4v0.1l-0.2,2.3l-1.3,18.5l-1.6,22.3l-0.5,6.3l-1,13.4v0.2l-107,1l-175.6,1.9v0.8h-0.1v-1.1
			l0.5-14.4l0.9-28.1l0.7-23.8l0.1-2.4c0.2-5.8,5-10.4,10.8-10.2c0.2,0,0.4,0,0.6,0c4.7,0.4,10.9,0.9,18.2,1.4l3,0.2
			c42.3,2.9,120.6,6.7,199.5,2c1.7-0.1,3.3-0.2,5-0.3c12.2-0.8,24.5-1.8,36.6-3c5.8-0.6,11,3.6,11.6,9.4
			C637.1,483,637.1,483.6,637,484.3L637,484.3z"/>
		<path class="st4" d="M349.7,552.5v-0.8l175.6-1.9l107-1h0.3v-0.2l1-13.4l0.4-6l1.6-22.6l1.3-17.9v-0.4c0.1-0.8,0-1.7-0.1-2.5
			c0,0,0-0.1,0-0.1c-0.3-1.7-1-3.3-2-4.6c-2.2-2.9-5.8-4.4-9.4-4c-12.2,1.2-24.4,2.2-36.6,3c-1.7,0.1-3.3,0.2-5,0.3
			c-78.9,4.7-157.2,0.9-199.5-2l-3-0.2c-7.3-0.5-13.5-1-18.2-1.4c-5.4-0.5-10.2,3.2-11.2,8.5c-0.1,0.5-0.2,1.1-0.2,1.6l-0.7,22.2
			l-0.9,28.1l-0.4,14.4L349.7,552.5L349.7,552.5z"/>
		<path class="st1" d="M637.3,491.3l-1.2,15.3l-1.8,22.8l-0.5,5.7l-1,12.8l-0.1,0.6v0.2l-0.2,1.5l0.1-1.5h-0.3l-107,1l-175.6,1.9
			v-0.3l0.5-14.4l1-28.1l0.6-18.6c0.1-2.2,1.2-4.1,3.1-5.2c1.1-0.7,2.5-1,3.8-0.9c2.1,0.2,4.7,0.4,7.7,0.6
			c4.9,0.4,10.9,0.8,17.9,1.2c13,0.8,29.3,1.7,48,2.4c52,2,122.2,2.7,188.9-3.2c3-0.3,6.1-0.5,9.1-0.8c1.2-0.1,2.4,0.1,3.5,0.7
			c0.3,0.2,0.6,0.3,0.9,0.5c0.9,0.6,1.6,1.5,2,2.5c0.1,0.2,0.2,0.4,0.2,0.6C637.3,489.5,637.4,490.4,637.3,491.3L637.3,491.3z"/>
		<path class="st1" d="M298.1,505v3.2c0,2.4-1.4,4.5-3.5,5.5l-40.1,0.8c-2.2-1-3.6-3.2-3.6-5.6v-3L298.1,505z"/>
		<path class="st4" d="M298.6,515.6l-52.2,1v-8.7l52.2-1V515.6z"/>
		<path class="st1" d="M298.6,515.6l-52.2,1v-8.7l52.2-1V515.6z"/>
		<path class="st4" d="M300.6,515.6l-52.2,1v-8.7l52.2-1V515.6z"/>
		<path class="st1" d="M679.2,507v3.2c0,2.4,1.4,4.5,3.5,5.5l40.1,0.8c2.2-1,3.6-3.2,3.6-5.6v-3L679.2,507z"/>
		<path class="st1" d="M678.7,517.6l52.2,1v-8.7l-52.2-1V517.6z"/>
		<path class="st4" d="M676.7,517.6l52.2,1v-8.7l-52.2-1V517.6z"/>
		<path class="st4" d="M454.8,313.9c0.1,7-3.2,13.6-5.9,20.1c-10,23.6-14.3,49.2-12.7,74.7c0.7,11,2.6,22,0.7,32.9
			s-8.4,21.8-19,24.9c17.5,10.5,41.3,9.4,57.8-2.7c8.8-6.4,15.3-15.3,21.8-24.1c-0.8,15.8-5.3,31.1-13.3,44.8
			c29.2-2.6,55.9-17.4,73.5-40.8c4.3-5.8,8.1-12.2,9.7-19.2c3.1-13-1.2-26.5-4.5-39.5c-2.7-10.9-4.8-21.9-6.2-33
			c-0.4-3.6-0.8-7.2,0.1-10.7c1-4.1,3.7-7.5,5.6-11.2c5.6-10.5,5.7-23.3,2.9-34.9s-8.5-22.3-14.1-32.8c-4.5-8.5-9.3-17.3-17.5-22.3
			c-5.1-3.1-11-4.4-16.9-5.6l-25.4-5.4c-5.5-1.2-11.3-2.4-16.9-1.5c-9.5,1.5-16.1,8.3-22,15.3c-4.6,5.5-15.8,15.7-16.6,22.9
			c-0.7,6.6,5.1,17.6,6.1,24.6c1.3,9,2.2,6,7.3,11.5C452.7,305.1,454.7,309.1,454.8,313.9L454.8,313.9z"/>
	</g>
	<g transform="translate(466.3 278.56)">
		<path class="st9" d="M197.9,87.4"/>
		<path class="st9" d="M233.7,87.3"/>
	</g>
</g>
<path class="st10" d="M336.6,403.9v53.9h-22.2c-18.4,0-36.4-5.6-51.6-16.2c1.2,0.1,2.5,0.1,3.7,0.1
	C294.8,441.7,321.1,427.5,336.6,403.9z"/>
<path class="st11" d="M336.6,383.1v20.8c-15.5,23.6-41.8,37.8-70.1,37.8c-1.2,0-2.5,0-3.7-0.1c-24.3-16.9-38.8-44.6-38.7-74.1
	c0-20.6,16.7-37.3,37.3-37.3c0,0,0,0,0,0h22.2C312.9,330.1,336.6,353.8,336.6,383.1C336.6,383.1,336.6,383.1,336.6,383.1z"/>
<path class="st12" d="M248.6,358h2.2c11.6,0,21,9.4,21,21l0,0v37.3l0,0h-2.2c-19.8,0-35.8-16-35.8-35.8c0,0,0,0,0,0v-7.6
	C233.8,364.6,240.5,358,248.6,358L248.6,358z"/>
<path class="st12" d="M293.7,416.3h-2.2l0,0V379c0-11.6,9.4-21,21-21h2.2c8.2,0,14.8,6.6,14.8,14.8v7.6
	C329.5,400.2,313.5,416.3,293.7,416.3z"/>
<g id="Layer_2-2">
	<g id="Layer_1-2-2">
		<path class="st12" d="M273.7,350.7c-0.1,1.3,0.9,2.5,2.3,2.6h0.1c1.3,0,2.4-1.1,2.4-2.4s-1.1-2.4-2.4-2.4
			C274.8,348.4,273.7,349.4,273.7,350.7z"/>
		<path class="st12" d="M264.6,350.1c-0.4,0-0.8,0.3-0.8,0.7c0,0.4,0.3,0.8,0.7,0.8c0.4,0,0.8-0.3,0.8-0.7
			C265.4,350.5,265.1,350.1,264.6,350.1C264.6,350.1,264.6,350.1,264.6,350.1z"/>
		<path class="st12" d="M273.5,336.6c0.4-0.2,0.5-0.7,0.4-1.1c-0.2-0.4-0.7-0.5-1.1-0.4c0,0,0,0,0,0c-0.4,0.2-0.5,0.7-0.3,1.1
			C272.7,336.7,273.1,336.8,273.5,336.6z"/>
		<path class="st12" d="M276,340.9c0.6-0.3,0.8-1,0.5-1.6c-0.3-0.6-1-0.8-1.6-0.5c-0.6,0.3-0.8,1-0.5,1.6c0,0,0,0,0,0
			C274.6,341,275.4,341.2,276,340.9z"/>
		<path class="st12" d="M267.7,343.9c0.5,0.3,1.1,0.2,1.4-0.3c0.3-0.5,0.2-1.1-0.3-1.4c-0.5-0.3-1.1-0.2-1.4,0.3c0,0,0,0,0,0l0,0
			C267.1,342.9,267.2,343.5,267.7,343.9C267.7,343.8,267.7,343.9,267.7,343.9z"/>
		<path class="st12" d="M269.2,349.6c-0.7,0-1.2,0.5-1.3,1.1c0,0.7,0.5,1.2,1.1,1.3c0.7,0,1.2-0.5,1.3-1.1l0,0
			C270.3,350.2,269.8,349.7,269.2,349.6z"/>
		<path class="st12" d="M267.8,357.8c-0.5,0.2-0.7,0.9-0.4,1.3c0.2,0.5,0.9,0.7,1.3,0.4c0.5-0.2,0.7-0.9,0.4-1.3l0,0
			C268.9,357.7,268.3,357.5,267.8,357.8z"/>
		<path class="st12" d="M272.5,347.1c0.7,0.4,1.5,0.2,2-0.4c0.4-0.7,0.2-1.5-0.4-2s-1.5-0.2-2,0.4c0,0,0,0,0,0
			C271.7,345.8,271.9,346.7,272.5,347.1C272.5,347.1,272.5,347.1,272.5,347.1z"/>
		<path class="st12" d="M287.5,340.8c0.6,0.4,1.3,0.2,1.7-0.3s0.2-1.3-0.3-1.7c-0.6-0.4-1.3-0.2-1.7,0.3c0,0,0,0,0,0l0,0
			C286.7,339.7,286.9,340.4,287.5,340.8C287.4,340.8,287.4,340.8,287.5,340.8z"/>
		<path class="st12" d="M289.9,336.5c0.4,0.2,0.8,0.1,1.1-0.2s0.1-0.8-0.2-1.1c-0.4-0.2-0.8-0.1-1.1,0.2
			C289.5,335.8,289.6,336.3,289.9,336.5z"/>
		<path class="st12" d="M287.6,348.4c-1.3-0.1-2.5,0.9-2.6,2.3c-0.1,1.3,0.9,2.5,2.3,2.6h0.1c1.3,0,2.4-1.1,2.4-2.4
			C289.9,349.5,288.9,348.4,287.6,348.4z"/>
		<path class="st12" d="M276.8,347c0.6,1.2,2.1,1.7,3.3,1.1s1.7-2.1,1.1-3.3c-0.6-1.2-2.1-1.7-3.3-1.1
			C276.6,344.3,276.2,345.8,276.8,347C276.8,347,276.8,347,276.8,347z"/>
		<path class="st12" d="M295.8,343.9c0.5-0.3,0.7-0.9,0.4-1.3c-0.3-0.5-0.9-0.7-1.3-0.4c-0.5,0.3-0.7,0.8-0.4,1.3
			C294.7,343.9,295.3,344.1,295.8,343.9z"/>
		<path class="st12" d="M289.6,344.6c-0.7,0.4-1,1.2-0.6,1.9c0.4,0.7,1.2,1,1.9,0.6s1-1.2,0.6-1.9
			C291.2,344.6,290.3,344.3,289.6,344.6z"/>
		<path class="st12" d="M281.7,336.2c0.6,0,1-0.4,1.1-0.9c0-0.6-0.4-1-0.9-1.1c-0.5,0-1,0.4-1.1,0.9
			C280.7,335.7,281.1,336.1,281.7,336.2z"/>
		<path class="st12" d="M281.7,342.4c0.8,0,1.5-0.6,1.5-1.3c0-0.8-0.6-1.5-1.3-1.5s-1.5,0.6-1.5,1.3
			C280.3,341.7,280.9,342.4,281.7,342.4C281.7,342.4,281.7,342.4,281.7,342.4z"/>
		<path class="st12" d="M274,357c0.7-0.4,1-1.2,0.6-1.9c-0.4-0.7-1.2-1-1.9-0.6s-1,1.2-0.6,1.9C272.4,357.1,273.3,357.3,274,357z"/>
		<path class="st12" d="M282.6,344.5c-0.7,1.1-0.4,2.6,0.7,3.4s2.6,0.4,3.4-0.7c0.7-1.1,0.4-2.6-0.7-3.4c-0.4-0.3-0.9-0.4-1.3-0.4
			C283.8,343.4,283.1,343.8,282.6,344.5z"/>
		<path class="st12" d="M286.8,354.7c-0.6-1.2-2.1-1.7-3.3-1.1s-1.7,2.1-1.1,3.3s2.1,1.7,3.3,1.1l0,0
			C286.9,357.3,287.4,355.9,286.8,354.7C286.8,354.7,286.8,354.7,286.8,354.7L286.8,354.7z"/>
		<path class="st12" d="M291.1,354.5c-0.7-0.4-1.5-0.2-2,0.4s-0.2,1.5,0.4,2s1.5,0.2,2-0.4c0,0,0,0,0,0
			C291.9,355.8,291.7,354.9,291.1,354.5C291.1,354.5,291.1,354.5,291.1,354.5z"/>
		<path class="st12" d="M295.7,350.9c0-0.7-0.5-1.2-1.1-1.3c-0.7,0-1.2,0.5-1.3,1.1c0,0.7,0.5,1.2,1.1,1.3l0,0
			C295.1,352,295.7,351.5,295.7,350.9z"/>
		<path class="st12" d="M299.1,350c-0.4,0-0.8,0.3-0.8,0.7s0.3,0.8,0.7,0.8s0.8-0.3,0.8-0.7C299.8,350.4,299.5,350,299.1,350z"/>
		<path class="st12" d="M295.9,357.8c-0.5-0.3-1.1-0.2-1.4,0.3c-0.3,0.5-0.2,1.1,0.3,1.4c0.5,0.3,1.1,0.2,1.4-0.3
			C296.5,358.7,296.4,358.1,295.9,357.8C295.9,357.8,295.9,357.8,295.9,357.8z"/>
		<path class="st12" d="M273.6,365.1c-0.4-0.2-0.8-0.1-1.1,0.2c-0.2,0.4-0.1,0.8,0.2,1.1c0.4,0.2,0.8,0.1,1.1-0.2l0,0
			C274.1,365.8,274,365.3,273.6,365.1C273.7,365.1,273.6,365.1,273.6,365.1z"/>
		<path class="st12" d="M290.1,365c-0.4,0.2-0.5,0.7-0.4,1.1c0.2,0.4,0.7,0.5,1.1,0.4c0,0,0,0,0,0c0.4-0.2,0.5-0.7,0.3-1.1
			C290.9,365,290.5,364.8,290.1,365z"/>
		<path class="st12" d="M281,357.1c0.7-1.1,0.4-2.6-0.7-3.4s-2.6-0.4-3.4,0.7c-0.7,1.1-0.4,2.6,0.7,3.4
			C278.7,358.5,280.2,358.2,281,357.1z"/>
		<path class="st12" d="M276.1,360.8c-0.6-0.4-1.3-0.2-1.7,0.3c-0.4,0.6-0.2,1.3,0.3,1.7s1.3,0.2,1.7-0.3l0,0
			C276.8,361.9,276.7,361.2,276.1,360.8C276.1,360.8,276.1,360.8,276.1,360.8z"/>
		<path class="st12" d="M281.8,365.4c-0.6,0-1,0.4-1.1,0.9c0,0.6,0.4,1,0.9,1.1c0.5,0,1-0.4,1.1-0.9
			C282.8,366,282.3,365.5,281.8,365.4z"/>
		<path class="st12" d="M281.8,359.2c-0.8,0-1.5,0.6-1.5,1.3c0,0.8,0.6,1.5,1.3,1.5c0.8,0,1.5-0.6,1.5-1.3
			C283.2,359.9,282.6,359.2,281.8,359.2C281.8,359.2,281.8,359.2,281.8,359.2z"/>
		<path class="st12" d="M287.6,360.7c-0.6,0.3-0.8,1-0.5,1.6c0.3,0.6,1,0.8,1.6,0.5c0.6-0.3,0.8-1,0.5-1.6
			C289,360.6,288.2,360.4,287.6,360.7C287.6,360.7,287.6,360.7,287.6,360.7z"/>
	</g>
</g>
<g id="Layer_2-2_00000021815122575178366680000009784275631166460578_">
	<g id="Layer_1-2-2_00000089542703962634118800000002087948029389195439_">
		<path class="st12" d="M662.4,396.1c-0.2,4,2.8,7.4,6.9,7.7h0.4c4,0,7.3-3.3,7.2-7.3c0-4-3.3-7.3-7.3-7.2
			C665.8,389.2,662.6,392.2,662.4,396.1z"/>
		<path class="st12" d="M635.3,394.2c-1.3-0.1-2.4,0.9-2.5,2.2s0.9,2.4,2.2,2.5c1.3,0.1,2.4-0.9,2.5-2.2
			C637.6,395.4,636.6,394.3,635.3,394.2C635.3,394.2,635.3,394.2,635.3,394.2z"/>
		<path class="st12" d="M662,353.9c1.2-0.6,1.6-2,1.1-3.2c-0.6-1.2-2-1.6-3.2-1.1c0,0,0,0,0,0c-1.2,0.6-1.6,2-1,3.2
			C659.4,354,660.8,354.5,662,353.9z"/>
		<path class="st12" d="M669.3,366.8c1.8-0.9,2.5-3.1,1.6-4.9c-0.9-1.8-3.1-2.5-4.9-1.6s-2.5,3.1-1.6,4.9c0,0,0,0,0,0
			C665.4,366.9,667.6,367.6,669.3,366.8z"/>
		<path class="st12" d="M644.5,375.6c1.4,0.9,3.2,0.5,4.1-0.9c0.9-1.4,0.5-3.2-0.9-4.1c-1.4-0.9-3.2-0.5-4.1,0.9c0,0,0,0,0,0l0,0
			C642.8,372.8,643.1,374.7,644.5,375.6C644.5,375.6,644.5,375.6,644.5,375.6z"/>
		<path class="st12" d="M648.9,392.9c-2-0.1-3.7,1.4-3.8,3.4c-0.1,2,1.4,3.7,3.4,3.8c2,0.1,3.7-1.4,3.8-3.4l0,0
			C652.5,394.8,650.9,393,648.9,392.9z"/>
		<path class="st12" d="M644.9,417.3c-1.5,0.7-2.1,2.6-1.3,4c0.7,1.5,2.6,2.1,4,1.3s2.1-2.6,1.3-4l0,0
			C648.2,417.2,646.4,416.6,644.9,417.3z"/>
		<path class="st12" d="M659,385.4c2,1.3,4.6,0.7,5.9-1.2c1.3-2,0.7-4.6-1.2-5.9s-4.6-0.7-5.9,1.2c0,0,0,0,0,0
			C656.5,381.5,657,384.1,659,385.4C659,385.4,659,385.4,659,385.4z"/>
		<path class="st12" d="M703.8,366.5c1.7,1.1,3.9,0.6,5-1c1.1-1.7,0.6-3.9-1-5c-1.7-1.1-3.9-0.6-5,1c0,0,0,0,0,0l0,0
			C701.7,363.1,702.1,365.3,703.8,366.5C703.8,366.4,703.8,366.4,703.8,366.5z"/>
		<path class="st12" d="M711.3,353.6c1.1,0.7,2.5,0.4,3.2-0.7c0.7-1.1,0.4-2.5-0.7-3.2c-1.1-0.7-2.5-0.4-3.2,0.7
			C709.9,351.5,710.2,352.9,711.3,353.6z"/>
		<path class="st12" d="M704.4,389.2c-4-0.2-7.4,2.8-7.7,6.9c-0.2,4,2.8,7.4,6.9,7.7h0.4c4,0,7.3-3.3,7.3-7.3
			C711.2,392.6,708.2,389.4,704.4,389.2z"/>
		<path class="st12" d="M671.7,384.9c1.8,3.6,6.2,5,9.8,3.2c3.6-1.8,5-6.2,3.2-9.8c-1.8-3.6-6.2-5-9.8-3.2
			C671.4,376.9,669.9,381.3,671.7,384.9C671.7,384.9,671.7,384.9,671.7,384.9z"/>
		<path class="st12" d="M728.7,375.6c1.5-0.8,2-2.6,1.3-4c-0.8-1.5-2.6-2-4-1.3c-1.5,0.8-2,2.5-1.3,4
			C725.4,375.7,727.2,376.3,728.7,375.6z"/>
		<path class="st12" d="M710.3,377.9c-2.1,1.1-3,3.6-1.9,5.7c1.1,2.1,3.6,3,5.7,1.9c2.1-1.1,3-3.6,1.9-5.7
			C715,377.7,712.4,376.8,710.3,377.9z"/>
		<path class="st12" d="M686.5,352.6c1.7,0.1,3.1-1.2,3.2-2.8c0.1-1.7-1.2-3.1-2.8-3.2c-1.6-0.1-3.1,1.2-3.2,2.8
			C683.6,351,684.9,352.4,686.5,352.6z"/>
		<path class="st12" d="M686.5,371.4c2.4,0.1,4.4-1.7,4.5-4c0.1-2.4-1.7-4.4-4-4.5c-2.4-0.1-4.4,1.7-4.5,4
			C682.3,369.2,684.1,371.2,686.5,371.4C686.5,371.4,686.5,371.4,686.5,371.4z"/>
		<path class="st12" d="M663.4,415c2.1-1.1,3-3.6,1.9-5.7c-1.1-2.1-3.6-3-5.7-1.9c-2.1,1.1-3,3.6-1.9,5.7
			C658.7,415.2,661.3,416.1,663.4,415z"/>
		<path class="st12" d="M689.3,377.6c-2.2,3.4-1.3,7.9,2.1,10.1c3.4,2.2,7.9,1.3,10.1-2.1c2.2-3.4,1.3-7.9-2.1-10.1
			c-1.2-0.8-2.6-1.2-4-1.2C692.9,374.3,690.6,375.6,689.3,377.6z"/>
		<path class="st12" d="M701.9,408c-1.8-3.6-6.2-5-9.8-3.2c-3.6,1.8-5,6.2-3.2,9.8c1.8,3.6,6.2,5,9.8,3.2l0,0
			C702.3,416,703.7,411.7,701.9,408C702,408.1,701.9,408.1,701.9,408L701.9,408z"/>
		<path class="st12" d="M714.6,407.5c-2-1.3-4.6-0.7-5.9,1.2s-0.7,4.6,1.2,5.9c2,1.3,4.6,0.7,5.9-1.2c0,0,0,0,0,0
			C717.2,411.5,716.6,408.8,714.6,407.5C714.7,407.5,714.6,407.5,714.6,407.5z"/>
		<path class="st12" d="M728.6,396.6c0.1-2-1.4-3.7-3.4-3.8c-2-0.1-3.7,1.4-3.8,3.4c-0.1,2,1.4,3.7,3.4,3.8l0,0
			C726.7,400.1,728.4,398.6,728.6,396.6z"/>
		<path class="st12" d="M738.6,394c-1.3-0.1-2.4,0.9-2.5,2.2c-0.1,1.3,0.9,2.4,2.2,2.5s2.4-0.9,2.5-2.2
			C740.9,395.2,739.9,394.1,738.6,394z"/>
		<path class="st12" d="M729.1,417.3c-1.4-0.9-3.2-0.5-4.1,0.9c-0.9,1.4-0.5,3.2,0.9,4.1c1.4,0.9,3.2,0.5,4.1-0.9
			C730.9,420.1,730.5,418.2,729.1,417.3C729.2,417.3,729.1,417.3,729.1,417.3z"/>
		<path class="st12" d="M662.4,439.3c-1.1-0.7-2.5-0.4-3.3,0.7c-0.7,1.1-0.4,2.5,0.7,3.3c1.1,0.7,2.5,0.4,3.3-0.7l0,0
			C663.8,441.5,663.5,440,662.4,439.3C662.4,439.3,662.4,439.3,662.4,439.3z"/>
		<path class="st12" d="M711.7,439c-1.2,0.6-1.6,2-1.1,3.2c0.6,1.2,2,1.6,3.2,1.1c0,0,0,0,0,0c1.2-0.6,1.6-2,1-3.2
			C714.2,438.9,712.8,438.5,711.7,439z"/>
		<path class="st12" d="M684.4,415.3c2.2-3.4,1.3-7.9-2.1-10.1c-3.4-2.2-7.9-1.3-10.1,2.1c-2.2,3.4-1.3,7.9,2.1,10.1
			C677.7,419.6,682.2,418.7,684.4,415.3z"/>
		<path class="st12" d="M669.8,426.5c-1.7-1.1-3.9-0.6-5,1s-0.6,3.9,1,5c1.7,1.1,3.9,0.6,5-1l0,0C672,429.8,671.5,427.6,669.8,426.5
			C669.9,426.5,669.9,426.5,669.8,426.5z"/>
		<path class="st12" d="M686.8,440.4c-1.7-0.1-3.1,1.2-3.2,2.8c-0.1,1.7,1.2,3.1,2.8,3.2c1.6,0.1,3.1-1.2,3.2-2.8
			C689.7,441.9,688.5,440.5,686.8,440.4z"/>
		<path class="st12" d="M686.8,421.6c-2.4-0.1-4.4,1.7-4.5,4c-0.1,2.4,1.7,4.4,4,4.5c2.4,0.1,4.4-1.7,4.5-4
			C691,423.7,689.2,421.7,686.8,421.6C686.9,421.6,686.8,421.6,686.8,421.6z"/>
		<path class="st12" d="M704.3,426.2c-1.8,0.9-2.5,3.1-1.6,4.9c0.9,1.8,3.1,2.5,4.9,1.6c1.8-0.9,2.5-3.1,1.6-4.9
			C708.3,426,706.2,425.2,704.3,426.2C704.3,426.1,704.3,426.2,704.3,426.2z"/>
	</g>
</g>
</svg>
